<?xml version="1.0" standalone="no"?>
<!DOCTYPE svg PUBLIC "-//W3C//DTD SVG 20010904//EN"
 "http://www.w3.org/TR/2001/REC-SVG-20010904/DTD/svg10.dtd">
<svg version="1.0" xmlns="http://www.w3.org/2000/svg"
 width="512.000000pt" height="512.000000pt" viewBox="0 0 512.000000 512.000000"
 preserveAspectRatio="xMidYMid meet">
<metadata>
Created by potrace 1.14, written by Peter Selinger 2001-2017
</metadata>
<g transform="translate(0.000000,512.000000) scale(0.100000,-0.100000)"
fill="#000000" stroke="none">
<path d="M2408 5115 c-2 -1 -30 -6 -63 -10 -33 -3 -78 -10 -100 -15 -22 -5
-53 -11 -70 -14 -80 -14 -257 -78 -360 -129 -400 -198 -714 -559 -848 -972
-43 -134 -58 -199 -77 -350 -7 -60 -5 -338 3 -385 2 -14 8 -47 12 -75 31 -213
147 -493 280 -680 87 -121 249 -292 359 -377 159 -123 352 -222 518 -268 91
-25 96 -26 233 -46 22 -3 41 -7 42 -8 1 -1 -10 -20 -25 -43 -66 -101 -147
-230 -158 -248 -6 -11 -36 -59 -66 -106 -131 -202 -181 -359 -182 -574 -1
-254 94 -489 272 -677 124 -130 191 -162 243 -116 14 13 101 147 193 298 93
151 181 294 197 318 16 23 29 45 29 47 0 3 17 31 37 62 21 32 47 74 58 94 16
28 123 203 205 334 8 13 35 57 59 97 145 239 402 655 411 665 5 7 10 14 10 17
0 2 41 71 92 153 50 81 127 207 171 278 44 72 87 141 96 155 16 26 20 32 69
120 60 108 134 315 156 435 3 17 9 44 12 60 21 110 26 390 10 515 -11 79 -65
282 -96 365 -62 160 -158 328 -263 460 -117 147 -351 342 -504 418 -151 77
-377 154 -535 183 -70 13 -410 28 -420 19z m343 -1011 c157 -46 268 -123 366
-254 133 -178 171 -409 103 -620 -115 -360 -476 -552 -855 -456 -45 12 -153
64 -200 96 -175 121 -286 320 -297 538 -1 23 -7 42 -12 42 -7 0 -7 3 0 8 6 4
11 14 11 22 1 78 31 187 76 275 90 180 250 306 452 357 99 25 256 21 356 -8z"/>
</g>
</svg>
