<svg xmlns="http://www.w3.org/2000/svg" width="24" height="24" viewBox="0 0 24 24"><path fill="#C2328F" d="M24,12 C24,18.627417 18.627417,24 12,24 C5.372583,24 0,18.627417 0,12 C0,5.372583 5.372583,0 12,0 C15.1825979,0 18.2348448,1.26428208 20.4852814,3.51471863 C22.7357179,5.76515517 24,8.81740212 24,12 Z M11.652,16.452 L18.852,9.252 C19.1563903,8.94760972 19.2752682,8.50395121 19.1638536,8.08814636 C19.0524391,7.6723415 18.7276585,7.34756093 18.3118536,7.23614636 C17.8960488,7.12473178 17.4523903,7.24360972 17.148,7.548 L10.8,13.908 L6.852,9.948 C6.38145339,9.47745342 5.61854662,9.47745343 5.14800003,9.94800003 C4.67745343,10.4185466 4.67745342,11.1814534 5.148,11.652 L9.948,16.452 C10.1733199,16.6791752 10.480035,16.806958 10.8,16.806958 C11.119965,16.806958 11.4266801,16.6791752 11.652,16.452 L11.652,16.452 Z"/></svg>