<svg width="48" height="48" viewBox="0 0 48 48" fill="none" xmlns="http://www.w3.org/2000/svg">
<circle cx="24" cy="24" r="24" fill="#EFEFEF"/>
<path d="M23.9596 7C14.5914 7 7 14.5563 7 23.881C7 25.8907 7.4038 27.7396 7.96912 29.508L11.9264 25.5691C11.9264 25.0064 11.8456 24.4437 11.8456 23.881C11.8456 17.209 17.2565 11.8232 23.9596 11.8232C30.6627 11.8232 36.0736 17.209 36.0736 23.881V24.283C36.0736 25.4084 35.1853 26.2926 34.0546 26.2926C32.924 26.2926 32.0356 25.4084 32.0356 24.283C32.0356 24.1222 32.0356 24.0418 32.0356 23.881C32.0356 19.4598 28.4014 15.8424 23.9596 15.8424C20.2447 15.8424 17.1758 18.3344 16.2067 21.6302C16.5297 21.4695 16.8527 21.4695 17.2565 21.4695C17.5796 21.4695 17.9834 21.5498 18.3064 21.7106C19.3563 22.1125 20.0024 23.0772 20.0024 24.2026V30.8746C21.2138 31.5981 22.5867 32 24.0404 32C26.3017 32 28.3207 31.1158 29.7743 29.5884C30.9858 30.5531 32.5202 31.1961 34.1354 31.1961C37.9311 31.1961 41 28.1415 41 24.3633V23.881C40.9192 14.5563 33.3278 7 23.9596 7ZM23.9596 27.0965C22.1829 27.0965 20.7292 25.6495 20.7292 23.881C20.7292 22.1125 22.1829 20.6656 23.9596 20.6656C25.7363 20.6656 27.19 22.1125 27.19 23.881C27.19 25.6495 25.7363 27.0965 23.9596 27.0965Z" fill="#0A1250"/>
<path d="M18 24.1565C18 23.7435 17.7724 23.3304 17.3931 23.1652C17.2414 23 17.0897 23 16.9379 23C16.6345 23 16.4069 23.0826 16.1793 23.3304L7.30345 32.9957C7 33.3261 6.92414 33.7391 7.07586 34.1522C7.22759 34.5652 7.53103 34.813 7.91034 34.8957C8.97241 35.0609 10.0345 35.3087 11.0966 35.6391L9.57931 39.6043C9.27586 40.4304 9.65517 41.4217 10.4138 41.8348C10.5655 41.9174 10.7931 42 10.9448 42C11.5517 42 12.0828 41.587 12.3862 41.0087L13.9034 37.0435C14.7379 37.5391 15.5724 38.1174 16.331 38.7783C16.4828 38.9435 16.7103 39.0261 16.9379 39.0261C17.0897 39.0261 17.2414 39.0261 17.3931 38.9435C17.7724 38.6957 18 38.2826 18 37.8696V24.1565Z" fill="#B80B7B"/>
</svg>
