<svg xmlns="http://www.w3.org/2000/svg" width="40" height="40" viewBox="0 0 40 40"><defs><linearGradient id="a" x1="17.109%" x2="78.699%" y1="91.922%" y2="18.528%"><stop offset="51.051%" stop-color="#FFF"/><stop offset="100%" stop-color="#FFF" stop-opacity=".3"/></linearGradient></defs><g fill="none" fill-rule="evenodd" transform="translate(1 3)"><path fill="url(#a)" fill-rule="nonzero" d="M3.72068274,25.8765617 C1.65566859,27.9675081 1.65566859,31.3408439 3.72068274,33.4317902 C5.78569689,35.5227366 9.11729949,35.5227366 11.1823136,33.4317902 L19.5524843,24.9565101 C15.422456,20.7746174 8.75932993,20.7746174 4.62930163,24.9565101 L3.72068274,25.8765617 Z"/><path fill="#FFF" d="M27.7528529,1.57047089 L19.4988917,9.91592731 L13.64282,3.995021 C12.0131165,2.34717214 9.80268216,1.42143774 7.49788699,1.42143774 C5.19309182,1.42143774 2.98265748,2.34717214 1.35287479,3.995021 L0,5.36289243 L12.0010047,17.4969285 L3.74965595,25.8397436 C3.56077595,26.0307174 3.38915321,26.2324164 3.23478774,26.4430798 C3.38155368,26.2463432 3.54351868,26.0575305 3.7207619,25.8780824 L4.62938079,24.9580308 C8.75940909,20.7761381 15.4225351,20.7761381 19.5525634,24.9580308 L11.1823136,33.433391 C10.4211731,34.2040893 9.48793493,34.6907282 8.50941619,34.8933076 C9.51263341,34.6971313 10.4705701,34.2062504 11.2475429,33.4207448 L19.4988917,25.0779297 L25.35718,31.0011571 C26.9868835,32.648926 29.1973178,33.5746604 31.502113,33.5746604 C33.8069082,33.5746604 36.0173425,32.648926 37.647046,31.0011571 L39,29.6332057 L26.9967787,17.4969285 L35.2507399,9.15147208 C37.3215328,7.05772435 37.3217703,3.66333819 35.251294,1.56991062 C33.1807385,-0.523516957 29.8236458,-0.52327684 27.7528529,1.57047089 Z"/></g></svg>