<svg xmlns="http://www.w3.org/2000/svg" width="40" height="40" viewBox="0 0 40 40"><g fill="none" fill-rule="evenodd"><path fill="#0A1250" fill-rule="nonzero" d="M16.58,24.58 L18,23.18 L11.42,16.58 C10.6357556,15.7957557 9.36424437,15.7957557 8.58000004,16.58 C7.79575571,17.3642444 7.7957557,18.6357556 8.58,19.42 L16.58,27.42 C16.2013747,27.0444668 15.9884034,26.5332751 15.9884034,26 C15.9884034,25.4667249 16.2013747,24.9555332 16.58,24.58 Z"/><path fill="#C2328F" fill-rule="nonzero" d="M40,20 C40,31.045695 31.045695,40 20,40 C8.954305,40 0,31.045695 0,20 C0,8.954305 8.954305,0 20,0 C25.3043298,0 30.3914081,2.10713681 34.1421356,5.85786438 C37.8928632,9.60859195 40,14.6956702 40,20 Z M19.42,27.42 L31.42,15.42 C31.9273171,14.9126829 32.125447,14.173252 31.9397561,13.4802439 C31.7540651,12.7872358 31.2127642,12.2459349 30.5197561,12.0602439 C29.826748,11.874553 29.0873171,12.0726829 28.58,12.58 L18,23.18 L11.42,16.58 C10.6357556,15.7957557 9.36424437,15.7957557 8.58000004,16.58 C7.79575571,17.3642444 7.7957557,18.6357556 8.58,19.42 L16.58,27.42 C16.9555332,27.7986253 17.4667249,28.0115966 18,28.0115966 C18.5332751,28.0115966 19.0444668,27.7986253 19.42,27.42 L19.42,27.42 Z"/></g></svg>