<svg xmlns="http://www.w3.org/2000/svg" width="40" height="40" viewBox="0 0 40 40"><g fill="none" fill-rule="evenodd"><path fill="#AFB5C3" fill-rule="nonzero" d="M39.6104132,15.9663866 C39.4991027,15.8726568 38.497308,15.1040724 36.3453047,15.1040724 C35.7887522,15.1040724 35.2136478,15.1603103 34.6570952,15.2540401 C34.2489567,12.3859082 31.8928841,10.9987072 31.8001253,10.9237233 L31.225021,10.5862961 L30.853986,11.1299289 C30.3901921,11.8610213 30.0377088,12.6858436 29.8336396,13.5294118 C29.4440528,15.1603103 29.6852255,16.697479 30.5015027,18.0096962 C29.5182598,18.572075 27.922809,18.7032967 27.5888775,18.7220427 L1.24538875,18.7220427 C0.5589739,18.7220427 0.00242132075,19.2844215 0.00242132075,19.978022 C-0.0346821845,22.302521 0.354904621,24.62702 1.15262998,26.8202973 C2.06166586,29.2197802 3.41594381,31.0006464 5.15980855,32.0879121 C7.12629433,33.3063995 10.3357475,34 13.9533393,34 C15.5858935,34 17.2184478,33.8500323 18.8324502,33.550097 C21.0772123,33.1376858 23.2292156,32.3503555 25.2142532,31.206852 C26.8468074,30.250808 28.3123958,29.0323206 29.5553633,27.6076277 C31.6517113,25.2268908 32.8946787,22.5649644 33.8037146,20.2029735 L34.1747497,20.2029735 C36.4566152,20.2029735 37.8665484,19.2844215 38.6457221,18.4970911 C39.1651711,18.0096962 39.5547579,17.4098255 39.8330342,16.7349709 L40,16.247576 L39.6104132,15.9663866 Z"/><path fill="#AFB5C3" fill-rule="nonzero" d="M3.69422009,17.9534583 L7.2190531,17.9534583 C7.38601887,17.9534583 7.53443289,17.8222366 7.53443289,17.634777 L7.53443289,14.4479638 C7.53443289,14.2792502 7.40457062,14.1292825 7.2190531,14.1292825 L3.69422009,14.1292825 C3.52725432,14.1292825 3.3788403,14.2605042 3.3788403,14.4479638 L3.3788403,17.634777 C3.39739205,17.8222366 3.52725432,17.9534583 3.69422009,17.9534583 Z M8.55477929,17.9534583 L12.0796123,17.9534583 C12.2465781,17.9534583 12.3949921,17.8222366 12.3949921,17.634777 L12.3949921,14.4479638 C12.3949921,14.2792502 12.2651298,14.1292825 12.0796123,14.1292825 L8.55477929,14.1292825 C8.38781351,14.1292825 8.23939949,14.2605042 8.23939949,14.4479638 L8.23939949,17.634777 C8.25795124,17.8222366 8.38781351,17.9534583 8.55477929,17.9534583 M13.5080972,17.9534583 L17.0329302,17.9534583 C17.199896,17.9534583 17.34831,17.8222366 17.34831,17.634777 L17.34831,14.4479638 C17.34831,14.2792502 17.2184478,14.1292825 17.0329302,14.1292825 L13.5080972,14.1292825 C13.3411315,14.1292825 13.1927174,14.2605042 13.1927174,14.4479638 L13.1927174,17.634777 C13.1927174,17.8222366 13.3225797,17.9534583 13.5080972,17.9534583 Z M18.3872082,17.9534583 L21.9120412,17.9534583 C22.079007,17.9534583 22.227421,17.8222366 22.227421,17.634777 L22.227421,14.4479638 C22.227421,14.2792502 22.0975587,14.1292825 21.9120412,14.1292825 L18.3872082,14.1292825 C18.2202424,14.1292825 18.0718284,14.2605042 18.0718284,14.4479638 L18.0718284,17.634777 C18.0718284,17.8222366 18.2202424,17.9534583 18.3872082,17.9534583 Z M8.55477929,13.39819 L12.0796123,13.39819 C12.2465781,13.39819 12.3949921,13.2482224 12.3949921,13.0795087 L12.3949921,9.89269554 C12.3949921,9.7239819 12.2651298,9.57401422 12.0796123,9.57401422 L8.55477929,9.57401422 C8.38781351,9.57401422 8.23939949,9.70523594 8.23939949,9.89269554 L8.23939949,13.0795087 C8.25795124,13.2482224 8.38781351,13.39819 8.55477929,13.39819 M13.5080972,13.39819 L17.0329302,13.39819 C17.199896,13.39819 17.34831,13.2482224 17.34831,13.0795087 L17.34831,9.89269554 C17.34831,9.7239819 17.2184478,9.57401422 17.0329302,9.57401422 L13.5080972,9.57401422 C13.3411315,9.57401422 13.1927174,9.70523594 13.1927174,9.89269554 L13.1927174,13.0795087 C13.1927174,13.2482224 13.3225797,13.39819 13.5080972,13.39819 M18.3872082,13.39819 L21.9120412,13.39819 C22.079007,13.39819 22.227421,13.2482224 22.227421,13.0795087 L22.227421,9.89269554 C22.227421,9.7239819 22.079007,9.57401422 21.9120412,9.57401422 L18.3872082,9.57401422 C18.2202424,9.57401422 18.0718284,9.70523594 18.0718284,9.89269554 L18.0718284,13.0795087 C18.0718284,13.2482224 18.2202424,13.39819 18.3872082,13.39819 M18.3872082,8.82417582 L21.9120412,8.82417582 C22.079007,8.82417582 22.227421,8.6929541 22.227421,8.50549451 L22.227421,5.31868132 C22.227421,5.14996768 22.079007,5 21.9120412,5 L18.3872082,5 C18.2202424,5 18.0718284,5.13122172 18.0718284,5.31868132 L18.0718284,8.50549451 C18.0718284,8.67420814 18.2202424,8.82417582 18.3872082,8.82417582 M23.3034226,17.9534583 L26.8282556,17.9534583 C26.9952214,17.9534583 27.1436354,17.8222366 27.1436354,17.634777 L27.1436354,14.4479638 C27.1436354,14.2792502 27.0137732,14.1292825 26.8282556,14.1292825 L23.3034226,14.1292825 C23.1364569,14.1292825 22.9880428,14.2605042 22.9880428,14.4479638 L22.9880428,17.634777 C23.0065946,17.8222366 23.1364569,17.9534583 23.3034226,17.9534583"/></g></svg>