<?xml version="1.0" encoding="UTF-8"?><svg id="a" xmlns="http://www.w3.org/2000/svg" width="48" height="48" viewBox="0 0 48 48"><ellipse cx="36.1" cy="13" rx="9.9" ry="10" style="fill:#c2328f;"/><ellipse cx="11.9" cy="35" rx="9.9" ry="10" style="fill:#c2328f;"/><path d="M23.7,13c0-3.041,1.085-5.83,2.883-8H10c-4.418,0-8,3.582-8,8s3.582,8,8,8H26.583c-1.798-2.17-2.883-4.959-2.883-8Z" style="fill:#fff;"/><path d="M38,27H21.417c1.798,2.17,2.883,4.959,2.883,8s-1.085,5.83-2.883,8h16.583c4.418,0,8-3.582,8-8s-3.582-8-8-8Z" style="fill:#fff;"/></svg>