<?xml version="1.0" encoding="UTF-8"?><svg id="a" xmlns="http://www.w3.org/2000/svg" width="48" height="48" viewBox="0 0 48 48"><circle cx="12" cy="9" r="5" style="fill:#0a1250;"/><path d="M14.5,31v-7c0-2.375,.893-4.592,2.419-6.3-1.358-1.061-3.062-1.7-4.919-1.7-4.418,0-8,3.582-8,8v7c0,1.657,1.343,3,3,3l.73,8.299c.153,1.534,1.444,2.701,2.985,2.701h2.57c1.541,0,2.832-1.168,2.985-2.701l.643-7.316c-.475-.25-.892-.587-1.248-.982-.718-.798-1.165-1.845-1.165-3Z" style="fill:#0a1250;"/><circle cx="36" cy="9" r="5" style="fill:#0a1250;"/><path d="M36,16c-1.857,0-3.561,.638-4.919,1.7,1.526,1.708,2.419,3.925,2.419,6.3v7c0,1.155-.447,2.202-1.165,3-.356,.395-.774,.733-1.248,.982l.643,7.316c.153,1.534,1.444,2.701,2.985,2.701h2.57c1.541,0,2.832-1.168,2.985-2.701l.73-8.299c1.657,0,3-1.343,3-3v-7c0-4.418-3.582-8-8-8Z" style="fill:#0a1250;"/><circle cx="24" cy="9" r="5" style="fill:#c2328f;"/><path d="M32,31v-7c0-3.088-1.753-5.76-4.315-7.092-.147-.076-.304-.112-.459-.112-.37,0-.727,.205-.903,.557l-1.429,2.858c-.184,.369-.539,.553-.894,.553s-.71-.184-.894-.553l-1.429-2.858c-.176-.353-.534-.557-.903-.557-.155,0-.312,.036-.459,.112-2.562,1.332-4.315,4.004-4.315,7.092v7c0,1.657,1.343,3,3,3l.73,8.299c.153,1.534,1.444,2.701,2.985,2.701h2.57c1.541,0,2.832-1.168,2.985-2.701l.73-8.299c1.657,0,3-1.343,3-3Z" style="fill:#0a1250;"/></svg>