<svg width="163" height="163" viewBox="0 0 163 163" fill="none" xmlns="http://www.w3.org/2000/svg">
<g clip-path="url(#clip0_1_2)">
<path d="M16.2 1.69999C13.9 2.49999 10 5.09999 7.6 7.59999C-0.199997 15.4 2.8847e-06 13.4 2.8847e-06 81.5C2.8847e-06 149.6 -0.199997 147.6 7.6 155.4C15.4 163.2 13.4 163 81.5 163C149.6 163 147.6 163.2 155.4 155.4C163.2 147.6 163 149.6 163 81.5C163 13.4 163.2 15.4 155.4 7.59999C147.6 -0.200005 149.6 -5.48065e-06 81.1 0.0999945C29.8 0.0999945 19.8 0.399995 16.2 1.69999ZM145.8 12C151.6 15.6 153 19.2 153 30.7V41H81.5H10V30.7C10 19.2 11.4 15.6 17.2 12C20.4 10.1 22.4 9.99999 81.5 9.99999C140.6 9.99999 142.6 10.1 145.8 12ZM153 96.2C153 140.6 152.9 142.6 151 145.8C149.9 147.6 147.6 149.9 145.8 151C142.6 152.9 140.6 153 81.5 153C22.4 153 20.4 152.9 17.2 151C15.4 149.9 13.1 147.6 12 145.8C10.1 142.6 10 140.6 10 96.2V50H81.5H153V96.2Z" fill="#B80B7B"/>
<path d="M23.4 21C18.3 23 21 31 26.3 29.6C29 29 30.9 25.2 29.5 23.1C28.4 21.2 25.5 20.2 23.4 21Z" fill="#B80B7B"/>
<path d="M42.9 21.9C40 24.2 40.9 28.7 44.5 29.6C47.9 30.5 50.2 28.4 49.8 24.7C49.4 20.8 46 19.4 42.9 21.9Z" fill="#B80B7B"/>
<path d="M64.4 21C61.4 22.2 60.7 24.9 62.5 27.6C64.3 30.4 67.2 30.7 69.5 28.4C72.9 25 68.9 19.3 64.4 21Z" fill="#B80B7B"/>
<path d="M31.8 78.8C22.5 88.1 20.2 91 20.6 92.7C21.4 95.7 43.3 117 45.6 117C48.3 117 50 115.1 50 112C50 110.1 47.7 107.1 41 100.5L32 91.5L41.1 82.4C48.9 74.6 50.1 72.9 49.8 70.4C49.6 68 49 67.4 46.5 67.2C43.8 66.9 42.1 68.3 31.8 78.8Z" fill="#B80B7B"/>
<path d="M83.2 68.2C82.7 68.9 77.4 79.1 71.6 90.8C61.3 111.4 61 112.3 62.5 114.6C64 117 66.5 117.6 68.6 116.2C70.2 115.2 91 73.4 91 71.2C91 67.5 85.5 65.4 83.2 68.2Z" fill="#B80B7B"/>
<path d="M102.8 69.5C101.7 72 102.1 72.6 110.8 81.3C115.9 86.4 120 91 120 91.5C120 92.1 116.4 96.1 111.9 100.5C102 110.4 101.4 111.4 103.5 114.6C106.3 118.9 108.6 117.7 120.6 105.7C129.1 97.4 132 93.8 132 92C132 88.2 110.5 67 106.7 67C104.7 67 103.6 67.7 102.8 69.5Z" fill="#B80B7B"/>
</g>
<defs>
<clipPath id="clip0_1_2">
<rect width="163" height="163" fill="white"/>
</clipPath>
</defs>
</svg>
