<?xml version="1.0" encoding="UTF-8"?><svg id="a" xmlns="http://www.w3.org/2000/svg" width="48" height="48" viewBox="0 0 48 48"><path d="M19.094,30.5H11c-2.455,0-4.631-1.191-6-3.019v9.519c0,1.657,1.343,3,3,3h13.774c-1.732-2.209-2.774-4.982-2.774-8,0-.508,.037-1.007,.094-1.5Z" style="fill:#0a1250;"/><path d="M32,19c4.465,0,8.41,2.264,10.751,5.703,.16-.54,.249-1.111,.249-1.703V14c0-1.657-1.343-3-3-3h-6c0-.526-.104-1.023-.255-1.5-.642-2.021-2.514-3.5-4.745-3.5h-10c-2.231,0-4.103,1.479-4.745,3.5-.151,.477-.255,.974-.255,1.5h-6c-1.657,0-3,1.343-3,3v9c0,3.314,2.686,6,6,6h8.363c1.36-5.724,6.502-10,12.637-10Zm-13-9h10c.552,0,1,.449,1,1h-12c0-.551,.448-1,1-1Z" style="fill:#0a1250;"/><path d="M45.268,41.732l-3.936-3.936c1.051-1.686,1.669-3.668,1.669-5.796,0-6.065-4.935-11-11-11s-11,4.935-11,11,4.935,11,11,11c2.128,0,4.111-.618,5.796-1.669l3.936,3.936c.488,.488,1.128,.732,1.768,.732s1.279-.244,1.768-.732c.977-.977,.977-2.559,0-3.535Zm-13.268-3.732c-3.309,0-6-2.691-6-6s2.691-6,6-6,6,2.691,6,6-2.691,6-6,6Z" style="fill:#c2328f;"/></svg>