<?xml version="1.0" encoding="UTF-8"?><svg id="a" xmlns="http://www.w3.org/2000/svg" width="48" height="48" viewBox="0 0 48 48"><path d="M24,7l.261,.002c2.427,.044,4.704,.743,6.685,1.921-.013-3.826-3.117-6.923-6.946-6.923-3.807,0-6.895,3.063-6.943,6.86,2.049-1.177,4.416-1.86,6.943-1.86Z" style="fill:#c2328f;"/><path d="M17.125,40c.463,3.388,3.361,6,6.875,6s6.412-2.612,6.875-6h-13.751Z" style="fill:#c2328f;"/><path d="M41,31.031c0-1.227-.747-2.33-1.886-2.785l-3.114-1.246v-5.602c0-6.607-5.169-12.275-11.775-12.396-.075-.001-.15-.002-.225-.002-6.628,0-12,5.372-12,12v6l-3.114,1.246c-1.139,.456-1.886,1.559-1.886,2.785v3.969c0,1.657,1.343,3,3,3h28c1.657,0,3-1.343,3-3v-3.969Z" style="fill:#fff;"/></svg>