<?xml version="1.0" encoding="UTF-8"?><svg id="a" xmlns="http://www.w3.org/2000/svg" width="48" height="48" viewBox="0 0 48 48"><path d="M39,17.5c-1.061,0-2.073-.204-3.01-.561l-.005,4.061h-8.985v-4.057c-.935,.354-1.943,.557-3,.557s-2.065-.203-3-.557v4.057H12v-4.057c-.935,.354-1.943,.557-3,.557s-2.065-.203-3-.557v4.057c0,3.309,2.607,6,5.812,6h9.188v4.057c.935-.354,1.943-.557,3-.557s2.065,.203,3,.557v-4.057h9.188c3.205,0,5.812-2.691,5.812-6v-4.057c-.935,.354-1.943,.557-3,.557Z" style="fill:#0a1250;"/><circle cx="24" cy="39" r="7" style="fill:#c2328f;"/><path d="M15.727,7.08c-.835-2.931-3.527-5.08-6.727-5.08-3.866,0-7,3.134-7,7s3.134,7,7,7c3.199,0,5.892-2.149,6.727-5.08,.174-.611,.273-1.253,.273-1.92s-.099-1.309-.273-1.92Z" style="fill:#0a1250;"/><path d="M24,2c-3.866,0-7,3.134-7,7s3.134,7,7,7c3.199,0,5.892-2.149,6.727-5.08,.174-.611,.273-1.253,.273-1.92s-.099-1.309-.273-1.92c-.835-2.931-3.527-5.08-6.727-5.08Z" style="fill:#0a1250;"/><circle cx="39" cy="9" r="7" style="fill:#0a1250;"/></svg>