<?xml version="1.0" encoding="UTF-8"?><svg id="a" xmlns="http://www.w3.org/2000/svg" width="48" height="48" viewBox="0 0 48 48"><path d="M40.83,26.04c-.552,0-1.052-.224-1.414-.586s-.586-.862-.586-1.414c0-.552,.224-1.052,.586-1.414s.862-.586,1.414-.586,1.052,.224,1.414,.586,.586,.862,.586,1.414c0,.552-.224,1.052-.586,1.414s-.862,.586-1.414,.586Z" style="fill:#fff;"/><path d="M34.094,34.265c.464-.464,1.093-.732,1.768-.732s1.304,.269,1.768,.732,.732,1.093,.732,1.768c0,.674-.269,1.304-.732,1.768s-1.093,.732-1.768,.732-1.304-.269-1.768-.732-.732-1.093-.732-1.768,.269-1.304,.732-1.768Z" style="fill:#fff;"/><path d="M21.748,38.879c.565-.565,1.325-.879,2.121-.879s1.556,.313,2.121,.879,.879,1.325,.879,2.121c0,.797-.313,1.556-.879,2.121s-1.325,.879-2.121,.879-1.556-.313-2.121-.879-.879-1.325-.879-2.121c0-.797,.313-1.556,.879-2.121Z" style="fill:#fff;"/><path d="M9.402,33.558c.667-.667,1.556-1.025,2.475-1.025s1.808,.358,2.475,1.025,1.025,1.556,1.025,2.475-.358,1.808-1.025,2.475-1.556,1.025-2.475,1.025-1.808-.358-2.475-1.025-1.025-1.556-1.025-2.475,.358-1.808,1.025-2.475Z" style="fill:#fff;"/><path d="M4.081,21.211c.769-.769,1.787-1.172,2.828-1.172s2.06,.403,2.828,1.172,1.172,1.787,1.172,2.828c0,1.041-.403,2.06-1.172,2.828s-1.787,1.172-2.828,1.172-2.06-.403-2.828-1.172-1.172-1.787-1.172-2.828,.403-2.06,1.172-2.828Z" style="fill:#fff;"/><path d="M8.695,8.865c.871-.871,2.019-1.318,3.182-1.318s2.311,.448,3.182,1.318,1.318,2.019,1.318,3.182-.448,2.311-1.318,3.182-2.019,1.318-3.182,1.318-2.311-.448-3.182-1.318-1.318-2.019-1.318-3.182,.448-2.311,1.318-3.182Z" style="fill:#c2328f;"/><path d="M20.334,3.544c.972-.972,2.25-1.464,3.536-1.464s2.563,.492,3.536,1.464,1.464,2.25,1.464,3.536-.492,2.563-1.464,3.536c-.972,.972-2.25,1.464-3.536,1.464s-2.563-.492-3.536-1.464c-.972-.972-1.464-2.25-1.464-3.536s.492-2.563,1.464-3.536Z" style="fill:#c2328f;"/><path d="M39.751,15.936c-1.074,1.074-2.482,1.611-3.889,1.611s-2.815-.537-3.889-1.611-1.611-2.482-1.611-3.889,.537-2.815,1.611-3.889,2.482-1.611,3.889-1.611,2.815,.537,3.889,1.611,1.611,2.482,1.611,3.889-.537,2.815-1.611,3.889Z" style="fill:#c2328f;"/></svg>