<?xml version="1.0" encoding="UTF-8"?><svg id="a" xmlns="http://www.w3.org/2000/svg" width="48" height="48" viewBox="0 0 48 48"><path d="M24,3c-6.86,0-12.936,3.299-16.761,8.389l-2.003-2.003c-.825-.825-2.236-.241-2.236,.926v9.378c0,.723,.586,1.31,1.31,1.31H13.688c1.167,0,1.751-1.411,.926-2.236l-1.635-1.635c2.299-3.675,6.376-6.129,11.022-6.129,7.168,0,13,5.832,13,13s-5.832,13-13,13-13-5.832-13-13H3c0,11.598,9.402,21,21,21s21-9.402,21-21S35.598,3,24,3Z" style="fill:#0a1250;"/><circle cx="24" cy="24" r="7" style="fill:#c2328f;"/></svg>