<?xml version="1.0" encoding="UTF-8"?><svg id="a" xmlns="http://www.w3.org/2000/svg" width="48" height="48" viewBox="0 0 48 48"><path d="M24,7C11.869,7,2,16.869,2,29c0,2.761,2.238,5,5,5s5-2.239,5-5c0-6.617,5.383-12,12-12,.805,0,1.591,.083,2.352,.235l1.177-3.234c.501-1.378,1.823-2.303,3.289-2.303h0c.408,0,.811,.071,1.197,.212,1.813,.66,2.752,2.672,2.092,4.486l-1.537,4.222c2.118,2.165,3.43,5.123,3.43,8.383,0,2.761,2.238,5,5,5s5-2.239,5-5c0-12.131-9.869-22-22-22Z" style="fill:#0a1250;"/><path d="M31.502,13.319c-.226-.082-.457-.121-.684-.121-.817,0-1.584,.504-1.879,1.317l-5.285,14.521c-2.597,.181-4.653,2.322-4.653,4.965,0,2.761,2.239,5,5,5s5-2.239,5-5c0-1.433-.611-2.716-1.577-3.628l5.274-14.49c.378-1.038-.157-2.186-1.195-2.563Z" style="fill:#c2328f;"/></svg>