<?xml version="1.0" encoding="UTF-8"?><svg id="a" xmlns="http://www.w3.org/2000/svg" width="48" height="48" viewBox="0 0 48 48"><path d="M24,41.737c-1.563,0-3.057-.668-4.099-1.833l-4.773-5.336c-7.158,.956-12.128,3.026-12.128,5.432,0,3.314,9.402,6,21,6s21-2.686,21-6c0-2.407-4.97-4.476-12.128-5.432l-4.773,5.336c-1.042,1.165-2.536,1.833-4.099,1.833Z" style="fill:#c2328f;"/><path d="M21.019,38.903c.795,.889,1.888,1.333,2.981,1.333s2.186-.444,2.981-1.333l8.948-10.004c2.531-2.83,4.071-6.567,4.071-10.663,0-8.837-7.163-16-16-16-.613,0-1.235,.035-1.862,.105-7.433,.839-13.377,6.919-14.067,14.367-.435,4.69,1.157,9.012,4,12.19l8.948,10.004Zm2.981-26.903c3.314,0,6,2.686,6,6s-2.686,6-6,6-6-2.686-6-6,2.686-6,6-6Z" style="fill:#0a1250;"/></svg>