<?xml version="1.0" encoding="UTF-8"?><svg id="a" xmlns="http://www.w3.org/2000/svg" width="48" height="48" viewBox="0 0 48 48"><path d="M10,16.75h28c1.657,0,3-1.31,3-2.925v-3.9c0-1.615-1.343-2.925-3-2.925H10c-1.657,0-3,1.31-3,2.925v3.9c0,1.615,1.343,2.925,3,2.925Z" style="fill:#fff;"/><path d="M35,21.5c2.157,0,4.19,.521,6,1.424v-.875c0-1.615-1.343-2.925-3-2.925H10c-1.657,0-3,1.31-3,2.925v3.9c0,1.615,1.343,2.925,3,2.925h12.985c2.237-4.37,6.777-7.375,12.015-7.375Z" style="fill:#fff;"/><path d="M22.041,31.25H10c-1.657,0-3,1.31-3,2.925v3.9c0,1.615,1.343,2.925,3,2.925h12.924c-.903-1.81-1.424-3.843-1.424-6,0-1.302,.195-2.558,.541-3.75Z" style="fill:#fff;"/><path d="M45.018,35h-7.033c-.875,0-1.313,1.058-.695,1.677l2.237,2.237c-1.099,1.273-2.716,2.086-4.527,2.086-3.309,0-6-2.691-6-6s2.691-6,6-6c2.607,0,4.824,1.673,5.65,4h5.159c-.944-5.112-5.427-9-10.809-9-6.065,0-11,4.935-11,11s4.935,11,11,11c3.189,0,6.061-1.367,8.07-3.543l1.253,1.253c.619,.619,1.677,.181,1.677-.695v-7.033c0-.543-.44-.982-.982-.982Z" style="fill:#c2328f;"/></svg>