<?xml version="1.0" encoding="UTF-8"?><svg id="a" xmlns="http://www.w3.org/2000/svg" width="48" height="48" viewBox="0 0 48 48"><path d="M22.714,22.226l-3.355-3.815-8.309,15.899c-.312,.598-.922,.94-1.553,.94-.272,0-.55-.064-.809-.2-.856-.447-1.188-1.505-.74-2.361L17.438,14.53c.267-.511,.769-.858,1.342-.927,.567-.073,1.142,.149,1.523,.582l5.242,5.961c1.904-1.041,4.085-1.635,6.401-1.644l5.01-9.331c.459-.851,1.519-1.169,2.37-.714,.852,.458,1.171,1.519,.714,2.37l-4.396,8.186c3.638,1.023,6.654,3.529,8.354,6.829V7c0-1.657-1.343-3-3-3H7c-1.657,0-3,1.343-3,3v30c0,1.657,1.343,3,3,3h14.151c-1.658-2.242-2.651-5.004-2.651-8,0-3.846,1.625-7.312,4.214-9.774Z" style="fill:#fff;"/><path d="M45.268,41.732l-3.936-3.936c1.051-1.686,1.668-3.668,1.668-5.796,0-6.065-4.935-11-11-11s-11,4.935-11,11,4.935,11,11,11c2.128,0,4.111-.618,5.796-1.669l3.936,3.936c.488,.488,1.128,.732,1.768,.732s1.279-.244,1.768-.732c.977-.976,.977-2.559,0-3.535Zm-13.268-3.732c-3.309,0-6-2.691-6-6s2.691-6,6-6,6,2.691,6,6-2.691,6-6,6Z" style="fill:#c2328f;"/></svg>