<?xml version="1.0" encoding="UTF-8"?><svg id="a" xmlns="http://www.w3.org/2000/svg" width="48" height="48" viewBox="0 0 48 48"><path d="M13.465,27.464l-5.767,5.767-2.717-2.717c-1.1-1.1-2.981-.321-2.981,1.235v12.504c0,.964,.782,1.746,1.746,1.746h12.504c1.556,0,2.335-1.881,1.235-2.981l-2.716-2.717,5.767-5.767c1.953-1.953,1.953-5.119,0-7.071-1.951-1.952-5.119-1.952-7.07,0Z" style="fill:#fff;"/><path d="M14.768,7.698l2.717-2.716c1.1-1.1,.321-2.981-1.235-2.981H3.746c-.964,0-1.746,.782-1.746,1.746v12.504c0,1.556,1.881,2.335,2.981,1.235l2.717-2.717,5.767,5.767c.976,.976,2.256,1.464,3.535,1.464s2.56-.488,3.535-1.464c1.953-1.953,1.953-5.119,0-7.071l-5.767-5.767Z" style="fill:#fff;"/><path d="M44.254,2h-12.504c-1.556,0-2.335,1.881-1.235,2.981l2.717,2.717-5.767,5.767c-1.953,1.953-1.953,5.119,0,7.071,.976,.976,2.256,1.464,3.535,1.464s2.56-.488,3.535-1.464l5.767-5.767,2.717,2.716c1.1,1.1,2.981,.321,2.981-1.235V3.746c0-.964-.782-1.746-1.746-1.746Z" style="fill:#c2328f;"/><path d="M43.019,30.515l-2.717,2.716-5.767-5.767c-1.951-1.952-5.119-1.952-7.07,0-1.953,1.953-1.953,5.119,0,7.071l5.767,5.767-2.717,2.717c-1.1,1.1-.321,2.981,1.235,2.981h12.504c.964,0,1.746-.782,1.746-1.746v-12.504c0-1.556-1.881-2.335-2.981-1.235Z" style="fill:#fff;"/></svg>