<?xml version="1.0" encoding="UTF-8"?><svg id="a" xmlns="http://www.w3.org/2000/svg" width="48" height="48" viewBox="0 0 48 48"><path d="M10.273,28h-1.273c-3.866,0-7,3.134-7,7v2c0,1.657,1.343,3,3,3h3v-5c0-2.613,.849-5.027,2.273-7Z" style="fill:#fff;"/><path d="M39,28h-1.273c1.424,1.973,2.273,4.387,2.273,7v5h3c1.657,0,3-1.343,3-3v-2c0-3.866-3.134-7-7-7Z" style="fill:#fff;"/><path d="M28,25h-8c-5.523,0-10,4.477-10,10v6c0,1.657,1.343,3,3,3h22c1.657,0,3-1.343,3-3v-6c0-5.523-4.477-10-10-10Z" style="fill:#fff;"/><circle cx="10" cy="21" r="5" style="fill:#fff;"/><circle cx="24" cy="13" r="9" style="fill:#c2328f;"/><circle cx="38" cy="21" r="5" style="fill:#fff;"/></svg>