<?xml version="1.0" encoding="UTF-8"?><svg id="a" xmlns="http://www.w3.org/2000/svg" width="48" height="48" viewBox="0 0 48 48"><path d="M43.328,29.151l-1.39-1.107c-1.224-.975-1.938-2.455-1.938-4.02v-.048c0-1.565,.713-3.045,1.938-4.02l1.39-1.107c1.076-.857,1.413-2.328,.866-3.589-.679-1.565-1.535-3.035-2.542-4.386-.819-1.099-2.257-1.535-3.532-1.034l-1.574,.619c-1.605,.631-3.145,.523-4.411-.225-.093-.055-.186-.108-.279-.161-1.28-.722-2.145-2.002-2.363-3.456-.095-.634-.197-1.311-.289-1.926-.197-1.311-1.226-2.366-2.542-2.527-.872-.107-1.76-.163-2.661-.163s-1.789,.056-2.661,.163c-1.316,.161-2.346,1.218-2.542,2.529l-.271,1.805c-.229,1.522-1.138,2.857-2.472,3.627l-.09,.052c-1.339,.773-2.957,.893-4.396,.327l-1.687-.663c-1.275-.502-2.715-.065-3.534,1.033-1.007,1.351-1.863,2.821-2.542,4.386-.547,1.262-.21,2.733,.866,3.589l1.39,1.107c1.224,.975,1.938,2.455,1.938,4.02v.048c0,1.565-.713,3.045-1.938,4.02l-1.39,1.107c-1.076,.857-1.413,2.328-.866,3.589,.679,1.565,1.535,3.035,2.542,4.386,.819,1.099,2.257,1.535,3.532,1.034l1.574-.619c1.605-.631,3.145-.523,4.411,.225,.093,.055,.186,.108,.279,.161,1.28,.722,2.145,2.002,2.363,3.456,.095,.634,.197,1.311,.289,1.926,.197,1.311,1.226,2.366,2.542,2.527,.872,.107,1.76,.163,2.661,.163s1.789-.056,2.661-.163c1.316-.161,2.346-1.218,2.542-2.529l.271-1.805c.229-1.522,1.138-2.857,2.472-3.627l.09-.052c1.339-.773,2.957-.893,4.396-.327l1.687,.663c1.275,.502,2.715,.065,3.534-1.033,1.007-1.351,1.863-2.821,2.542-4.386,.547-1.262,.21-2.733-.866-3.589Zm-19.328,4.849c-5.514,0-10-4.486-10-10s4.486-10,10-10,10,4.486,10,10-4.486,10-10,10Z" style="fill:#fff;"/><circle cx="24" cy="24" r="8" style="fill:#c2328f;"/></svg>