<?xml version="1.0" encoding="UTF-8"?><svg id="a" xmlns="http://www.w3.org/2000/svg" width="48" height="48" viewBox="0 0 48 48"><rect x="7" y="7" width="34" height="10" rx="3" ry="3" style="fill:#0a1250;"/><path d="M35,22c2.165,0,4.203,.539,6,1.479v-1.479c0-1.657-1.343-3-3-3H10c-1.657,0-3,1.343-3,3v4c0,1.657,1.343,3,3,3h13.479c2.172-4.154,6.517-7,11.521-7Z" style="fill:#0a1250;"/><path d="M22.636,31H10c-1.657,0-3,1.343-3,3v4c0,1.657,1.343,3,3,3h13.479c-.94-1.797-1.479-3.835-1.479-6,0-1.396,.227-2.739,.636-4Z" style="fill:#0a1250;"/><path d="M45.018,35h-7.033c-.875,0-1.313,1.058-.695,1.677l2.237,2.237c-1.099,1.273-2.716,2.086-4.527,2.086-3.309,0-6-2.691-6-6s2.691-6,6-6c2.967,0,5.431,2.167,5.91,5h5.04c-.508-5.598-5.221-10-10.949-10-6.065,0-11,4.935-11,11s4.935,11,11,11c3.189,0,6.061-1.367,8.07-3.543l1.253,1.253c.619,.619,1.677,.181,1.677-.695v-7.033c0-.543-.44-.982-.982-.982Z" style="fill:#c2328f;"/></svg>