<?xml version="1.0" encoding="UTF-8"?><svg id="a" xmlns="http://www.w3.org/2000/svg" width="48" height="48" viewBox="0 0 48 48"><path d="M17.295,43.883c2.109,.713,4.359,1.117,6.705,1.117,1.657,0,3-1.343,3-3s-1.343-3-3-3c-1.755,0-3.433-.319-5-.875v2.848c0,1.201-.664,2.317-1.705,2.91Z" style="fill:#0a1250;"/><path d="M24,3C12.421,3,3,12.421,3,24c0,2.466,.45,4.824,1.234,7.024l4.93-4.93c-.097-.686-.164-1.382-.164-2.095,0-8.271,6.729-15,15-15s15,6.729,15,15v.5c0,1.379-1.121,2.5-2.5,2.5s-2.5-1.121-2.5-2.5h-.025c.008-.167,.025-.331,.025-.5,0-5.514-4.486-10-10-10-4.557,0-8.404,3.068-9.605,7.244,.393-.158,.815-.244,1.251-.244h0c.442,0,.874,.086,1.281,.254,1.259,.519,2.072,1.736,2.072,3.099v8.294c1.473,.855,3.178,1.353,5,1.353,2.767,0,5.274-1.131,7.086-2.953,1.471,1.219,3.358,1.953,5.414,1.953,4.687,0,8.5-3.813,8.5-8.5v-.5c0-11.579-9.421-21-21-21Zm0,25c-2.206,0-4-1.794-4-4s1.794-4,4-4,4,1.794,4,4-1.794,4-4,4Z" style="fill:#0a1250;"/><path d="M17,24.353c0-.547-.329-1.041-.835-1.25-.168-.07-.344-.103-.518-.103-.352,0-.697,.138-.956,.397L2.938,35.149c-.367,.367-.491,.913-.321,1.403,.172,.49,.609,.839,1.126,.897,1.433,.163,2.822,.468,4.169,.9l-2.036,4.834c-.435,1.032,.05,2.222,1.083,2.658,.256,.108,.525,.159,.786,.159,.793,0,1.544-.466,1.872-1.242l2.023-4.801c1.095,.598,2.156,1.284,3.172,2.081,.243,.19,.538,.288,.835,.288,.202,0,.404-.045,.592-.136,.465-.227,.761-.699,.761-1.217V24.353Z" style="fill:#c2328f;"/></svg>