<?xml version="1.0" encoding="UTF-8"?><svg id="a" xmlns="http://www.w3.org/2000/svg" width="48" height="48" viewBox="0 0 48 48"><path d="M24,38c-1.477,0-2.752,.809-3.445,2h-5.555c-.552,0-1-.448-1-1v-3h-4v3c0,2.757,2.243,5,5,5h5.555c.693,1.191,1.968,2,3.445,2,2.209,0,4-1.791,4-4s-1.791-4-4-4Z" style="fill:#fff;"/><path d="M10,34h5V18h-5c-4.418,0-8,3.582-8,8s3.582,8,8,8Z" style="fill:#c2328f;"/><path d="M38,16c.321,0,.638,.018,.952,.048-.495-7.827-7.002-14.048-14.952-14.048s-14.457,6.221-14.952,14.048c.314-.03,.63-.048,.952-.048h5.059c.499-4.493,4.317-8,8.941-8s8.442,3.507,8.941,8h5.059Z" style="fill:#fff;"/><path d="M33,18v16h5c4.418,0,8-3.582,8-8s-3.582-8-8-8h-5Z" style="fill:#c2328f;"/></svg>