<?xml version="1.0" encoding="UTF-8"?><svg id="a" xmlns="http://www.w3.org/2000/svg" width="48" height="48" viewBox="0 0 48 48"><path d="M24.252,7.502c2.432,.044,4.706,.777,6.667,1.997,.014-.182,.028-.365,.028-.551,0-3.837-3.11-6.947-6.947-6.947s-6.947,3.11-6.947,6.947c0,.164,.013,.324,.024,.484,2.027-1.218,4.391-1.932,6.923-1.932l.252,.002Z" style="fill:#c2328f;"/><path d="M24,46c3.686,0,6.693-2.873,6.925-6.5h-13.85c.232,3.627,3.239,6.5,6.925,6.5Z" style="fill:#c2328f;"/><path d="M39.114,28.246l-3.114-1.246v-5.602c0-6.607-5.169-12.275-11.775-12.396-.075-.001-.15-.002-.225-.002-6.628,0-12,5.372-12,12v6l-3.114,1.246c-1.139,.456-1.886,1.559-1.886,2.785v3.969c0,1.657,1.343,3,3,3h28c1.657,0,3-1.343,3-3v-3.969c0-1.227-.747-2.33-1.886-2.785Z" style="fill:#0a1250;"/></svg>