<?xml version="1.0" encoding="UTF-8"?><svg id="a" xmlns="http://www.w3.org/2000/svg" width="48" height="48" viewBox="0 0 48 48"><path d="M33,8h-2.525c-.256-3.355-3.054-6-6.475-6s-6.219,2.645-6.475,6h-2.525v4c0,1.657,1.343,3,3,3h12c1.657,0,3-1.343,3-3v-4Z" style="fill:#c2328f;"/><path d="M38,8h-3v4c0,2.757-2.243,5-5,5h-12c-2.757,0-5-2.243-5-5v-4h-3c-1.657,0-3,1.343-3,3V43c0,1.657,1.343,3,3,3h28c1.657,0,3-1.343,3-3V11c0-1.657-1.343-3-3-3Zm-6,28H16c-1.105,0-2-.895-2-2s.895-2,2-2h16c1.105,0,2,.895,2,2s-.895,2-2,2Zm0-8H16c-1.105,0-2-.895-2-2s.895-2,2-2h16c1.105,0,2,.895,2,2s-.895,2-2,2Z" style="fill:#fff;"/></svg>