<?xml version="1.0" encoding="UTF-8"?><svg id="a" xmlns="http://www.w3.org/2000/svg" width="48" height="48" viewBox="0 0 48 48"><path d="M43,2h-6.858c-2.652,0-5.196,1.054-7.071,2.929l-10.071,10.071H9.485c-1.591,0-3.117,.632-4.243,1.757l-1.121,1.121c-1.172,1.172-1.172,3.071,0,4.243l5.379,5.379,11,11,5.379,5.379c.586,.586,1.354,.879,2.121,.879s1.536-.293,2.121-.879l1.121-1.121c1.125-1.125,1.757-2.651,1.757-4.243v-9.515l10.071-10.071c1.875-1.875,2.929-4.419,2.929-7.071V5c0-1.657-1.343-3-3-3Zm-8,15c-2.209,0-4-1.791-4-4s1.791-4,4-4,4,1.791,4,4-1.791,4-4,4Z" style="fill:#fff;"/><path d="M8.086,28.914l-4.207,4.207c-.563,.563-.879,1.326-.879,2.121v6.757c0,1.657,1.343,3,3,3h6.757c.796,0,1.559-.316,2.121-.879l4.207-4.207-11-11Z" style="fill:#c2328f;"/></svg>