<?xml version="1.0" encoding="UTF-8"?><svg id="a" xmlns="http://www.w3.org/2000/svg" width="48" height="48" viewBox="0 0 48 48"><path d="M23.229,22.433l-3.922-4.46-8.478,16.222c-.268,.512-.79,.806-1.33,.806-.234,0-.472-.055-.693-.171-.734-.384-1.019-1.29-.635-2.024L17.66,14.646c.229-.438,.659-.735,1.149-.794,.494-.062,.979,.127,1.306,.499l5.549,6.309c1.867-1.047,4.013-1.651,6.3-1.658l5.215-9.711c.393-.731,1.302-1.003,2.031-.612,.729,.392,1.004,1.301,.611,2.031l-4.668,8.693c4.004,1.003,7.281,3.855,8.847,7.605V7c0-1.657-1.343-3-3-3H7c-1.657,0-3,1.343-3,3v30c0,1.657,1.343,3,3,3h14.774c-1.732-2.209-2.774-4.982-2.774-8,0-3.786,1.637-7.189,4.229-9.567Z" style="fill:#0a1250;"/><path d="M45.268,41.732l-3.936-3.936c1.051-1.686,1.668-3.668,1.668-5.796,0-6.065-4.935-11-11-11s-11,4.935-11,11,4.935,11,11,11c2.128,0,4.111-.618,5.796-1.669l3.936,3.936c.488,.488,1.128,.732,1.768,.732s1.279-.244,1.768-.732c.977-.976,.977-2.559,0-3.535Zm-19.268-9.732c0-3.309,2.691-6,6-6s6,2.691,6,6-2.691,6-6,6-6-2.691-6-6Z" style="fill:#c2328f;"/></svg>