<?xml version="1.0" encoding="UTF-8"?><svg id="a" xmlns="http://www.w3.org/2000/svg" width="48" height="48" viewBox="0 0 48 48"><path d="M17.898,44.089c1.932,.588,3.979,.911,6.102,.911,1.657,0,3-1.343,3-3s-1.343-3-3-3c-1.568,0-3.079-.244-4.5-.692v2.664c0,1.238-.614,2.398-1.602,3.117Z" style="fill:#fff;"/><path d="M24,3C12.421,3,3,12.421,3,24c0,2.272,.374,4.456,1.045,6.507l5.03-5.03c-.048-.486-.075-.978-.075-1.477,0-8.271,6.729-15,15-15s15,6.729,15,15v.5c0,1.379-1.121,2.5-2.5,2.5s-2.5-1.121-2.5-2.5h-.025c.008-.167,.025-.331,.025-.5,0-5.514-4.486-10-10-10-4.344,0-8.039,2.789-9.417,6.667,.343-.099,.696-.167,1.063-.167h0c.508,0,1.004,.099,1.472,.292,1.447,.597,2.382,1.995,2.382,3.561v8.565c1.355,.686,2.88,1.082,4.5,1.082,2.767,0,5.274-1.131,7.086-2.953,1.471,1.219,3.358,1.953,5.414,1.953,4.687,0,8.5-3.813,8.5-8.5v-.5c0-11.579-9.421-21-21-21Zm0,25c-2.206,0-4-1.794-4-4s1.794-4,4-4,4,1.794,4,4-1.794,4-4,4Z" style="fill:#fff;"/><path d="M2.938,35.149c-.367,.367-.491,.913-.321,1.403,.172,.49,.609,.839,1.126,.897,1.433,.163,2.822,.468,4.169,.9l-2.036,4.834c-.435,1.032,.05,2.222,1.083,2.658,.256,.108,.525,.159,.786,.159,.793,0,1.544-.466,1.872-1.242l2.023-4.801c1.095,.598,2.156,1.284,3.172,2.081,.243,.19,.538,.288,.835,.288,.202,0,.404-.045,.592-.136,.465-.227,.761-.699,.761-1.217V24.353c0-.547-.329-1.041-.835-1.25-.168-.07-.344-.103-.518-.103-.352,0-.697,.138-.956,.397L2.938,35.149Z" style="fill:#c2328f;"/></svg>