<?xml version="1.0" encoding="UTF-8"?><svg id="a" xmlns="http://www.w3.org/2000/svg" width="48" height="48" viewBox="0 0 48 48"><path d="M33.469,34.65l-4.997,5.587c-1.137,1.271-2.767,2-4.472,2s-3.335-.729-4.472-2l-4.997-5.587c-6.835,.99-11.531,3.011-11.531,5.35,0,3.314,9.402,6,21,6s21-2.686,21-6c0-2.339-4.695-4.361-11.531-5.35Z" style="fill:#c2328f;"/><path d="M21.019,38.903c.795,.889,1.888,1.333,2.981,1.333s2.186-.444,2.981-1.333l8.948-10.004c2.531-2.83,4.071-6.567,4.071-10.663,0-8.836-7.164-16-16-16-.614,0-1.234,.034-1.862,.105-7.433,.839-13.377,6.919-14.067,14.367-.435,4.69,1.157,9.012,4,12.19l8.948,10.004Zm2.981-26.903c3.314,0,6,2.686,6,6s-2.686,6-6,6-6-2.686-6-6,2.686-6,6-6Z" style="fill:#fff;"/></svg>