<?xml version="1.0" encoding="UTF-8"?><svg id="a" xmlns="http://www.w3.org/2000/svg" width="48" height="48" viewBox="0 0 48 48"><rect x="21" y="30" width="6" height="22" rx="3" ry="3" transform="translate(65 17) rotate(90)" style="fill:#c2328f;"/><path d="M43,5H5c-1.657,0-3,1.343-3,3v25c0,1.657,1.343,3,3,3H43c1.657,0,3-1.343,3-3V8c0-1.657-1.343-3-3-3ZM16.338,23.514c.821,.738,.888,2.003,.148,2.824-.395,.438-.939,.662-1.487,.662-.477,0-.955-.169-1.337-.514l-5-4.5c-.422-.379-.662-.919-.662-1.486s.24-1.107,.662-1.486l5-4.5c.82-.74,2.087-.671,2.824,.148,.739,.821,.673,2.086-.148,2.824l-3.349,3.014,3.349,3.014Zm11.609-11.056l-4,17c-.217,.921-1.039,1.542-1.945,1.542-.152,0-.306-.017-.46-.053-1.075-.254-1.742-1.33-1.489-2.405l4-17c.253-1.076,1.332-1.74,2.405-1.489,1.075,.254,1.742,1.33,1.489,2.405Zm11.391,9.528l-5,4.5c-.382,.345-.86,.514-1.337,.514-.548,0-1.093-.224-1.487-.662-.739-.821-.673-2.086,.148-2.824l3.349-3.014-3.349-3.014c-.821-.738-.888-2.003-.148-2.824,.738-.819,2.004-.889,2.824-.148l5,4.5c.422,.379,.662,.919,.662,1.486s-.24,1.107-.662,1.486Z" style="fill:#fff;"/></svg>