<svg width="40" height="40" viewBox="0 0 40 40" fill="none" xmlns="http://www.w3.org/2000/svg">
<g clip-path="url(#clip0_2_11)">
<path d="M39.6104 15.9664C39.4991 15.8727 38.4973 15.1041 36.3453 15.1041C35.7888 15.1041 35.2136 15.1603 34.6571 15.254C34.249 12.3859 31.8929 10.9987 31.8001 10.9237L31.225 10.5863L30.854 11.1299C30.3902 11.861 30.0377 12.6859 29.8336 13.5294C29.4441 15.1603 29.6852 16.6975 30.5015 18.0097C29.5183 18.5721 27.9228 18.7033 27.5889 18.722H1.24539C0.558974 18.722 0.00242132 19.2844 0.00242132 19.978C-0.0346822 22.3025 0.354905 24.627 1.15263 26.8203C2.06167 29.2198 3.41594 31.0007 5.15981 32.0879C7.12629 33.3064 10.3357 34 13.9533 34C15.5859 34 17.2184 33.85 18.8325 33.5501C21.0772 33.1377 23.2292 32.3504 25.2143 31.2069C26.8468 30.2508 28.3124 29.0323 29.5554 27.6076C31.6517 25.2269 32.8947 22.565 33.8037 20.203H34.1748C36.4566 20.203 37.8665 19.2844 38.6457 18.4971C39.1652 18.0097 39.5548 17.4098 39.833 16.735L40 16.2476L39.6104 15.9664Z" fill="#B80B7B"/>
<path d="M3.69422 17.9535H7.21905C7.38602 17.9535 7.53443 17.8222 7.53443 17.6348V14.448C7.53443 14.2793 7.40457 14.1293 7.21905 14.1293H3.69422C3.52725 14.1293 3.37884 14.2605 3.37884 14.448V17.6348C3.39739 17.8222 3.52725 17.9535 3.69422 17.9535ZM8.55478 17.9535H12.0796C12.2466 17.9535 12.395 17.8222 12.395 17.6348V14.448C12.395 14.2793 12.2651 14.1293 12.0796 14.1293H8.55478C8.38781 14.1293 8.2394 14.2605 8.2394 14.448V17.6348C8.25795 17.8222 8.38781 17.9535 8.55478 17.9535ZM13.5081 17.9535H17.0329C17.1999 17.9535 17.3483 17.8222 17.3483 17.6348V14.448C17.3483 14.2793 17.2184 14.1293 17.0329 14.1293H13.5081C13.3411 14.1293 13.1927 14.2605 13.1927 14.448V17.6348C13.1927 17.8222 13.3226 17.9535 13.5081 17.9535ZM18.3872 17.9535H21.912C22.079 17.9535 22.2274 17.8222 22.2274 17.6348V14.448C22.2274 14.2793 22.0976 14.1293 21.912 14.1293H18.3872C18.2202 14.1293 18.0718 14.2605 18.0718 14.448V17.6348C18.0718 17.8222 18.2202 17.9535 18.3872 17.9535ZM8.55478 13.3982H12.0796C12.2466 13.3982 12.395 13.2482 12.395 13.0795V9.8927C12.395 9.72398 12.2651 9.57401 12.0796 9.57401H8.55478C8.38781 9.57401 8.2394 9.70524 8.2394 9.8927V13.0795C8.25795 13.2482 8.38781 13.3982 8.55478 13.3982ZM13.5081 13.3982H17.0329C17.1999 13.3982 17.3483 13.2482 17.3483 13.0795V9.8927C17.3483 9.72398 17.2184 9.57401 17.0329 9.57401H13.5081C13.3411 9.57401 13.1927 9.70524 13.1927 9.8927V13.0795C13.1927 13.2482 13.3226 13.3982 13.5081 13.3982ZM18.3872 13.3982H21.912C22.079 13.3982 22.2274 13.2482 22.2274 13.0795V9.8927C22.2274 9.72398 22.079 9.57401 21.912 9.57401H18.3872C18.2202 9.57401 18.0718 9.70524 18.0718 9.8927V13.0795C18.0718 13.2482 18.2202 13.3982 18.3872 13.3982ZM18.3872 8.82418H21.912C22.079 8.82418 22.2274 8.69295 22.2274 8.50549V5.31868C22.2274 5.14997 22.079 5 21.912 5H18.3872C18.2202 5 18.0718 5.13122 18.0718 5.31868V8.50549C18.0718 8.67421 18.2202 8.82418 18.3872 8.82418ZM23.3034 17.9535H26.8283C26.9952 17.9535 27.1436 17.8222 27.1436 17.6348V14.448C27.1436 14.2793 27.0138 14.1293 26.8283 14.1293H23.3034C23.1365 14.1293 22.988 14.2605 22.988 14.448V17.6348C23.0066 17.8222 23.1365 17.9535 23.3034 17.9535Z" fill="#B80B7B"/>
</g>
<defs>
<clipPath id="clip0_2_11">
<rect width="40" height="40" fill="white"/>
</clipPath>
</defs>
</svg>
