<?xml version="1.0" encoding="UTF-8"?><svg id="a" xmlns="http://www.w3.org/2000/svg" width="48" height="48" viewBox="0 0 48 48"><path d="M24,3C12.402,3,3,12.402,3,24s9.402,21,21,21,21-9.402,21-21S35.598,3,24,3Zm9.414,27.586c.781,.781,.781,2.047,0,2.828-.391,.391-.902,.586-1.414,.586s-1.023-.195-1.414-.586l-6.586-6.586-6.586,6.586c-.391,.391-.902,.586-1.414,.586s-1.023-.195-1.414-.586c-.781-.781-.781-2.047,0-2.828l6.586-6.586-6.586-6.586c-.781-.781-.781-2.047,0-2.828s2.047-.781,2.828,0l6.586,6.586,6.586-6.586c.781-.781,2.047-.781,2.828,0s.781,2.047,0,2.828l-6.586,6.586,6.586,6.586Z" style="fill:#0a1250;"/></svg>