<?xml version="1.0" encoding="UTF-8"?><svg id="a" xmlns="http://www.w3.org/2000/svg" width="48" height="48" viewBox="0 0 48 48"><path d="M10.897,28h-1.897c-3.866,0-7,3.134-7,7v2c0,1.657,1.343,3,3,3h3.5v-5c0-2.635,.9-5.059,2.397-7Z" style="fill:#0a1250;"/><path d="M39,28h-1.897c1.496,1.941,2.397,4.365,2.397,7v5h3.5c1.657,0,3-1.343,3-3v-2c0-3.866-3.134-7-7-7Z" style="fill:#0a1250;"/><path d="M38,35c0-5.523-4.477-10-10-10h-8c-5.523,0-10,4.477-10,10v6c0,1.657,1.343,3,3,3h22c1.657,0,3-1.343,3-3v-6Z" style="fill:#0a1250;"/><circle cx="10" cy="21" r="5" style="fill:#0a1250;"/><circle cx="24" cy="13" r="9" style="fill:#c2328f;"/><circle cx="38" cy="21" r="5" style="fill:#0a1250;"/></svg>