<?xml version="1.0" encoding="UTF-8"?><svg id="a" xmlns="http://www.w3.org/2000/svg" width="48" height="48" viewBox="0 0 48 48"><path d="M18.551,31h-7.551c-2.39,0-4.533-1.059-6-2.726v8.726c0,1.657,1.343,3,3,3h13.151c-1.658-2.242-2.651-5.004-2.651-8,0-.338,.026-.669,.051-1Z" style="fill:#fff;"/><path d="M45.268,41.732l-3.936-3.936c1.051-1.686,1.669-3.668,1.669-5.796,0-6.065-4.935-11-11-11s-11,4.935-11,11,4.935,11,11,11c2.128,0,4.111-.618,5.796-1.669l3.936,3.936c.488,.488,1.128,.732,1.768,.732s1.279-.244,1.768-.732c.977-.977,.977-2.559,0-3.535Zm-7.648-7.648c-.607,1.632-1.903,2.928-3.535,3.535-.65,.242-1.35,.381-2.084,.381-3.309,0-6-2.691-6-6s2.691-6,6-6,6,2.691,6,6c0,.734-.139,1.434-.381,2.084Z" style="fill:#c2328f;"/><path d="M40,11h-6v-1c0-2.757-2.243-5-5-5h-10c-2.757,0-5,2.243-5,5v1h-6c-1.657,0-3,1.343-3,3v9c0,3.314,2.686,6,6,6h7.848c1.369-6.003,6.741-10.5,13.152-10.5,4.478,0,8.442,2.201,10.9,5.568,.062-.347,.1-.703,.1-1.068V14c0-1.657-1.343-3-3-3Zm-22,0v-1c0-.552,.448-1,1-1h10c.552,0,1,.448,1,1v1h-12Z" style="fill:#fff;"/></svg>