<svg width="48" height="48" viewBox="0 0 48 48" fill="none" xmlns="http://www.w3.org/2000/svg">
<path d="M45.372 36.073L27.994 6.056C26.216 2.986 21.784 2.986 20.006 6.056L2.628 36.073C0.846999 39.15 3.067 43 6.622 43H41.378C44.933 43 47.153 39.149 45.372 36.073ZM26 36C26 37.105 25.105 38 24 38C22.895 38 22 37.105 22 36V35C22 33.895 22.895 33 24 33C25.105 33 26 33.895 26 35V36ZM26 28C26 29.105 25.105 30 24 30C22.895 30 22 29.105 22 28V17C22 15.895 22.895 15 24 15C25.105 15 26 15.895 26 17V28Z" fill="#B80B7B"/>
</svg>
