<?xml version="1.0" encoding="UTF-8"?><svg id="a" xmlns="http://www.w3.org/2000/svg" width="48" height="48" viewBox="0 0 48 48"><path d="M43.328,29.151l-1.39-1.107c-1.224-.975-1.938-2.455-1.938-4.02v-.048c0-1.565,.713-3.045,1.938-4.02l1.39-1.107c1.076-.857,1.413-2.328,.866-3.589-.679-1.565-1.535-3.035-2.542-4.386-.819-1.099-2.257-1.535-3.532-1.034l-1.574,.619c-1.605,.631-3.145,.523-4.411-.225-.093-.055-.186-.108-.279-.161-1.28-.722-2.145-2.002-2.363-3.456l-.289-1.926c-.197-1.311-1.226-2.366-2.542-2.527-.872-.107-1.76-.163-2.661-.163s-1.789,.056-2.661,.163c-1.316,.161-2.346,1.218-2.542,2.529l-.271,1.805c-.228,1.522-1.138,2.857-2.472,3.627l-.089,.052c-1.339,.773-2.957,.893-4.396,.327l-1.687-.663c-1.275-.502-2.715-.065-3.534,1.033-1.007,1.351-1.863,2.821-2.542,4.386-.547,1.262-.21,2.733,.866,3.589l1.39,1.107c1.224,.975,1.938,2.455,1.938,4.02v.048c0,1.565-.713,3.045-1.938,4.02l-1.39,1.107c-1.076,.857-1.413,2.328-.866,3.589,.679,1.565,1.535,3.035,2.542,4.386,.819,1.099,2.257,1.535,3.532,1.034l1.574-.619c1.605-.631,3.145-.523,4.411,.225,.093,.055,.186,.108,.279,.161,1.28,.722,2.145,2.002,2.363,3.456l.289,1.926c.197,1.311,1.226,2.366,2.542,2.527,.872,.107,1.76,.163,2.661,.163s1.789-.056,2.661-.163c1.316-.161,2.346-1.218,2.542-2.529l.271-1.805c.228-1.522,1.138-2.857,2.472-3.627l.089-.052c1.339-.773,2.957-.893,4.396-.327l1.687,.663c1.275,.502,2.715,.065,3.534-1.033,1.007-1.351,1.863-2.821,2.542-4.386,.547-1.262,.21-2.733-.866-3.589Zm-10.088-5.528c-.495,1.158-1.57,1.877-2.806,1.877h-1.933v5.5c0,2.481-2.019,4.5-4.5,4.5s-4.5-2.019-4.5-4.5v-5.5h-1.933c-1.236,0-2.311-.719-2.806-1.877-.504-1.178-.262-2.533,.616-3.451l6.433-6.729c.581-.608,1.359-.942,2.19-.942s1.609,.335,2.19,.942l6.433,6.729c.878,.918,1.12,2.273,.616,3.451Z" style="fill:#0a1250;"/><path d="M31.539,21.208l-6.433-6.729c-.305-.319-.705-.479-1.106-.479s-.8,.16-1.106,.479l-6.433,6.729c-.985,1.03-.287,2.792,1.106,2.792h3.433v7c0,1.657,1.343,3,3,3s3-1.343,3-3v-7h3.433c1.393,0,2.091-1.762,1.106-2.792Z" style="fill:#c2328f;"/></svg>