<?xml version="1.0" encoding="UTF-8"?><svg id="a" xmlns="http://www.w3.org/2000/svg" width="48" height="48" viewBox="0 0 48 48"><path d="M38,16.5c.33,0,.656,.017,.977,.05-.241-8.062-6.858-14.55-14.977-14.55s-14.737,6.488-14.977,14.55c.321-.033,.647-.05,.977-.05h5.025c.262-4.73,4.18-8.5,8.975-8.5s8.713,3.77,8.975,8.5h5.025Z" style="fill:#0a1250;"/><path d="M24,38c-1.477,0-2.752,.809-3.445,2h-5.555c-.552,0-1-.448-1-1v-3.5h-4v3.5c0,2.757,2.243,5,5,5h5.555c.693,1.191,1.968,2,3.445,2,2.209,0,4-1.791,4-4s-1.791-4-4-4Z" style="fill:#0a1250;"/><path d="M2,26c0,4.418,3.582,8,8,8h5V18h-5c-4.418,0-8,3.582-8,8Z" style="fill:#c2328f;"/><path d="M38,18h-5v16h5c4.418,0,8-3.582,8-8s-3.582-8-8-8Z" style="fill:#c2328f;"/></svg>