<?xml version="1.0" encoding="UTF-8"?><svg id="a" xmlns="http://www.w3.org/2000/svg" width="48" height="48" viewBox="0 0 48 48"><path d="M28,15c-8.284,0-15,6.716-15,15s6.716,15,15,15,15-6.716,15-15-6.716-15-15-15Zm2,13c0,1.105-.895,2-2,2s-2-.895-2-2v-6c0-1.105,.895-2,2-2s2,.895,2,2v6Z" style="fill:#fff;"/><path d="M6.55,38.601C-.993,23.675,9.242,5.825,25.706,3.255c1.206-.188,2.294,.766,2.294,1.986v4.855c0,1.035-.792,1.878-1.822,1.986-5.578,.588-10.808,3.833-13.639,8.712-2.862,4.681-3.305,10.716-1.31,15.807,.461,1.176-.065,2.51-1.175,3.112h0c-1.271,.69-2.853,.178-3.506-1.114Z" style="fill:#c2328f;"/></svg>