<?xml version="1.0" encoding="UTF-8"?><svg id="a" xmlns="http://www.w3.org/2000/svg" width="48" height="48" viewBox="0 0 48 48"><path d="M24,7c0-2.761-2.239-5-5-5s-5,2.239-5,5c-3.314,0-6,2.686-6,6,0,.396,.041,.781,.114,1.156-3.62,1.801-6.114,5.527-6.114,9.844,0,2.837,1.091,5.405,2.857,7.353,.562-1.302,1.383-2.463,2.393-3.43,.008-.008,.01-.019,.018-.027,.975-.975,.975-2.562,0-3.536-.586-.586-.586-1.535,0-2.121s1.535-.586,2.121,0c.945,.945,1.449,2.154,1.561,3.392,1.111-.401,2.303-.631,3.551-.631,.828,0,1.5,.672,1.5,1.5s-.672,1.5-1.5,1.5c-3.415,0-6.299,2.297-7.202,5.425-.084,.291-.146,.59-.196,.894-.01,.065-.021,.129-.03,.194-.044,.323-.073,.651-.073,.987,0,4.142,3.358,7.5,7.5,7.5,.258,0,.512-.013,.764-.039,.609,1.764,2.266,3.039,4.236,3.039,2.485,0,4.5-2.015,4.5-4.5V7Zm-4.5,31.5c-.909,0-1.76,.406-2.334,1.115-.297,.366-.729,.557-1.167,.557-.331,0-.665-.109-.942-.334-.645-.521-.744-1.466-.223-2.109,1.146-1.416,2.847-2.229,4.666-2.229,.828,0,1.5,.672,1.5,1.5s-.672,1.5-1.5,1.5Zm-5.5-18c-.828,0-1.5-.672-1.5-1.5s.672-1.5,1.5-1.5c2.481,0,4.5-2.019,4.5-4.5,0-.828,.672-1.5,1.5-1.5s1.5,.672,1.5,1.5c0,4.136-3.364,7.5-7.5,7.5Z" style="fill:#fff;"/><path d="M33,3c-2.209,0-4,1.791-4,4,0,1.477,.809,2.752,2,3.445v3.555c0,.552-.448,1-1,1h-4v4h4c2.757,0,5-2.243,5-5v-3.555c1.191-.693,2-1.968,2-3.445,0-2.209-1.791-4-4-4Z" style="fill:#fff;"/><path d="M35,37.555v-3.555c0-2.757-2.243-5-5-5h-4v4h4c.552,0,1,.448,1,1v3.555c-1.191,.693-2,1.968-2,3.445,0,2.209,1.791,4,4,4s4-1.791,4-4c0-1.477-.809-2.752-2-3.445Z" style="fill:#fff;"/><path d="M42,20c-1.477,0-2.752,.809-3.445,2h-12.555v4h12.555c.693,1.191,1.968,2,3.445,2,2.209,0,4-1.791,4-4s-1.791-4-4-4Z" style="fill:#c2328f;"/></svg>