<?xml version="1.0" encoding="UTF-8"?><svg id="a" xmlns="http://www.w3.org/2000/svg" width="48" height="48" viewBox="0 0 48 48"><path d="M31.545,17c-3.058,0-5.545-2.488-5.545-5.545V2H10c-1.657,0-3,1.343-3,3V43c0,1.657,1.343,3,3,3h28c1.657,0,3-1.343,3-3V17h-9.455Zm.455,19H16c-1.105,0-2-.895-2-2s.895-2,2-2h16c1.105,0,2,.895,2,2s-.895,2-2,2Zm0-9H16c-1.105,0-2-.895-2-2s.895-2,2-2h16c1.105,0,2,.895,2,2s-.895,2-2,2Z" style="fill:#fff;"/><path d="M31.545,15h9.455L28,2V11.455c0,1.958,1.587,3.545,3.545,3.545Z" style="fill:#c2328f;"/></svg>