<?xml version="1.0" encoding="UTF-8"?><svg id="a" xmlns="http://www.w3.org/2000/svg" width="48" height="48" viewBox="0 0 48 48"><path d="M26.5,11.455V2H10c-1.657,0-3,1.343-3,3V43c0,1.657,1.343,3,3,3h28c1.657,0,3-1.343,3-3V16.5h-9.455c-2.782,0-5.045-2.263-5.045-5.045Zm5.5,24.545H16c-1.105,0-2-.895-2-2s.895-2,2-2h16c1.105,0,2,.895,2,2s-.895,2-2,2Zm2-11c0,1.105-.895,2-2,2H16c-1.105,0-2-.895-2-2s.895-2,2-2h16c1.105,0,2,.895,2,2Z" style="fill:#0a1250;"/><path d="M28,2V11.455c0,1.958,1.587,3.545,3.545,3.545h9.455L28,2Z" style="fill:#c2328f;"/></svg>