<?xml version="1.0" encoding="UTF-8"?><svg id="a" xmlns="http://www.w3.org/2000/svg" width="48" height="48" viewBox="0 0 48 48"><circle cx="12" cy="9" r="5" style="fill:#fff;"/><path d="M15.016,34c-.632-.837-1.016-1.872-1.016-3v-7c0-2.485,.928-4.807,2.517-6.601-1.286-.881-2.84-1.399-4.517-1.399-4.418,0-8,3.582-8,8v7c0,1.657,1.343,3,3,3l.73,8.299c.153,1.534,1.444,2.701,2.985,2.701h2.57c1.541,0,2.832-1.168,2.985-2.701l.597-6.791c-.733-.349-1.367-.866-1.851-1.507Z" style="fill:#fff;"/><circle cx="36" cy="9" r="5" style="fill:#fff;"/><path d="M36,16c-1.676,0-3.231,.518-4.517,1.399,1.589,1.794,2.517,4.116,2.517,6.601v7c0,1.128-.384,2.163-1.016,3-.485,.642-1.118,1.159-1.851,1.507l.597,6.791c.153,1.534,1.444,2.701,2.985,2.701h2.57c1.541,0,2.832-1.168,2.985-2.701l.73-8.299c1.657,0,3-1.343,3-3v-7c0-4.418-3.582-8-8-8Z" style="fill:#fff;"/><circle cx="24" cy="9" r="5" style="fill:#c2328f;"/><path d="M32,31v-7c0-3.088-1.753-5.76-4.315-7.092-.147-.076-.304-.112-.459-.112-.37,0-.727,.205-.903,.557l-1.429,2.858c-.184,.369-.539,.553-.894,.553s-.71-.184-.894-.553l-1.429-2.858c-.176-.353-.534-.557-.903-.557-.155,0-.312,.036-.459,.112-2.562,1.332-4.315,4.004-4.315,7.092v7c0,1.657,1.343,3,3,3l.73,8.299c.153,1.534,1.444,2.701,2.985,2.701h2.57c1.541,0,2.832-1.168,2.985-2.701l.73-8.299c1.657,0,3-1.343,3-3Z" style="fill:#fff;"/></svg>