<?xml version="1.0" encoding="UTF-8"?><svg id="a" xmlns="http://www.w3.org/2000/svg" width="48" height="48" viewBox="0 0 48 48"><circle cx="24" cy="39" r="7" style="fill:#c2328f;"/><path d="M39,18c-1.058,0-2.067-.197-3.011-.534l-.004,3.534h-8.985v-3.53c-.94,.335-1.946,.53-3,.53s-2.06-.196-3-.53v3.53H12v-3.53c-.94,.335-1.946,.53-3,.53s-2.06-.191-3-.525v3.525c0,3.309,2.607,6,5.812,6h9.188v3.525c.94-.334,1.947-.525,3-.525s2.06,.191,3,.525v-3.525h9.188c3.205,0,5.812-2.691,5.812-6v-3.525c-.94,.334-1.947,.525-3,.525Z" style="fill:#fff;"/><circle cx="9" cy="9" r="7" style="fill:#fff;"/><circle cx="24" cy="9" r="7" style="fill:#fff;"/><circle cx="39" cy="9" r="7" style="fill:#fff;"/></svg>