<?xml version="1.0" encoding="UTF-8"?><svg id="a" xmlns="http://www.w3.org/2000/svg" width="48" height="48" viewBox="0 0 48 48"><path d="M31.502,13.319c-.226-.082-.457-.121-.684-.121-.817,0-1.584,.504-1.879,1.317l-5.285,14.521c-2.597,.181-4.653,2.322-4.653,4.965,0,2.761,2.239,5,5,5s5-2.239,5-5c0-1.433-.611-2.716-1.577-3.628l5.274-14.49c.378-1.038-.157-2.186-1.195-2.563Z" style="fill:#c2328f;"/><path d="M24,7C11.869,7,2,16.869,2,29c0,2.761,2.238,5,5,5s5-2.239,5-5c0-6.617,5.383-12,12-12,.63,0,1.242,.07,1.844,.168l1.215-3.338c.573-1.574,2.084-2.632,3.759-2.632h0c.467,0,.927,.081,1.368,.242,2.072,.754,3.145,3.054,2.391,5.127l-1.628,4.472c1.891,2.12,3.051,4.904,3.051,7.962,0,2.761,2.238,5,5,5s5-2.239,5-5c0-12.131-9.869-22-22-22Z" style="fill:#fff;"/></svg>