<svg width="68" height="62" viewBox="0 0 68 62" fill="none" xmlns="http://www.w3.org/2000/svg">
<g clip-path="url(#clip0_1866_773)">
<path d="M12.8273 37.2H10.8182C4.79091 37.2 0 42.005 0 48.05V51.15C0 53.785 2.00909 55.8 4.63636 55.8H9.27273V48.05C9.27273 44.02 10.5091 40.3 12.8273 37.2Z" fill="white"/>
<path d="M57.1819 37.2H55.1729C57.3365 40.3 58.7274 44.02 58.7274 48.05V55.8H63.3638C65.991 55.8 68.0001 53.785 68.0001 51.15V48.05C68.0001 42.005 63.2092 37.2 57.1819 37.2Z" fill="white"/>
<path d="M40.1817 32.55H27.8181C19.3181 32.55 12.3635 39.525 12.3635 48.05V57.35C12.3635 59.9851 14.3726 62 16.9999 62H50.9999C53.6272 62 55.6363 59.9851 55.6363 57.35V48.05C55.6363 39.525 48.6817 32.55 40.1817 32.55Z" fill="white"/>
<path d="M12.3637 34.1C16.6314 34.1 20.091 30.6302 20.091 26.35C20.091 22.0698 16.6314 18.6 12.3637 18.6C8.09609 18.6 4.63647 22.0698 4.63647 26.35C4.63647 30.6302 8.09609 34.1 12.3637 34.1Z" fill="white"/>
<path d="M33.9999 27.9C41.6817 27.9 47.909 21.6544 47.909 13.95C47.909 6.24563 41.6817 0 33.9999 0C26.3181 0 20.0908 6.24563 20.0908 13.95C20.0908 21.6544 26.3181 27.9 33.9999 27.9Z" fill="#B80B7B"/>
<path d="M55.6365 34.1C59.9041 34.1 63.3637 30.6302 63.3637 26.35C63.3637 22.0698 59.9041 18.6 55.6365 18.6C51.3688 18.6 47.9092 22.0698 47.9092 26.35C47.9092 30.6302 51.3688 34.1 55.6365 34.1Z" fill="white"/>
</g>
<defs>
<clipPath id="clip0_1866_773">
<rect width="68" height="62" fill="white"/>
</clipPath>
</defs>
</svg>
