<svg width="202" height="32" viewBox="0 0 202 32" xmlns="http://www.w3.org/2000/svg">
    <defs>
        <linearGradient x1="13.6%" y1="32.278%" x2="38.195%" y2="61.827%" id="jrwivsgiva">
            <stop stop-color="#FFF" stop-opacity=".3" offset=".263%"/>
            <stop stop-color="#FFF" offset="100%"/>
        </linearGradient>
    </defs>
    <g fill="none" fill-rule="evenodd">
        <path d="M48.755 25.667c-1.41 0-2.663-.294-3.756-.88-1.093-.605-1.957-1.414-2.592-2.427-.634-1.031-.952-2.204-.952-3.52 0-1.316.318-2.48.952-3.493A6.909 6.909 0 0 1 45 12.893c1.093-.604 2.345-.906 3.756-.906h2.036v3.493h-1.878c-.687 0-1.278.151-1.772.453a3.036 3.036 0 0 0-1.163 1.2c-.265.498-.397 1.067-.397 1.707 0 .64.132 1.218.397 1.733.282.498.67.898 1.163 1.2.494.285 1.085.427 1.772.427h1.878v3.467h-2.036zm3.783 0V6.2h4.1v19.467h-4.1zm13.37.32c-1.393 0-2.6-.267-3.623-.8-1.005-.551-1.781-1.29-2.328-2.214-.546-.942-.82-1.982-.82-3.12v-7.866h4.1v7.76c0 .48.114.924.344 1.333.229.391.537.711.925.96.406.231.864.347 1.376.347.493 0 .934-.116 1.322-.347a2.75 2.75 0 0 0 .952-.96c.23-.409.344-.853.344-1.333v-7.76h4.1v7.866c0 1.138-.265 2.178-.794 3.12-.529.925-1.296 1.663-2.301 2.214-.988.533-2.187.8-3.597.8zm9.257-.32v-3.28h6.532c.177 0 .335-.036.476-.107.141-.089.256-.204.344-.347a.894.894 0 0 0-.344-1.253.875.875 0 0 0-.476-.133h-2.38c-.882 0-1.684-.143-2.407-.427a3.822 3.822 0 0 1-1.692-1.387c-.406-.64-.609-1.466-.609-2.48 0-.782.186-1.493.556-2.133a4.498 4.498 0 0 1 1.56-1.547 4.277 4.277 0 0 1 2.195-.586h6.533v3.306h-5.898a.911.911 0 0 0-.635.24.801.801 0 0 0-.238.587c0 .249.08.462.238.64.177.16.388.24.635.24h2.327c.988 0 1.834.151 2.54.453a3.305 3.305 0 0 1 1.666 1.387c.405.64.608 1.467.608 2.48 0 .8-.203 1.529-.608 2.187A4.366 4.366 0 0 1 84.5 25.08c-.653.391-1.393.587-2.222.587h-7.114zm18.054 0c-1.252 0-2.23-.356-2.936-1.067-.706-.729-1.058-1.707-1.058-2.933V8.653h4.126v12.774c0 .213.07.4.211.56a.806.806 0 0 0 .556.213h2.962v3.467h-3.861zm-6.216-10.294v-3.386H97.08v3.386H87.003zm18.676 10.294c-1.534 0-2.883-.285-4.047-.854-1.163-.586-2.071-1.386-2.724-2.4-.635-1.03-.952-2.222-.952-3.573 0-1.493.309-2.773.926-3.84.617-1.067 1.437-1.884 2.46-2.453 1.04-.587 2.186-.88 3.438-.88 1.428 0 2.618.302 3.57.906a5.736 5.736 0 0 1 2.195 2.48c.494 1.031.74 2.214.74 3.547 0 .231-.017.507-.052.827a5.492 5.492 0 0 1-.08.72h-8.886c.106.462.309.853.608 1.173.3.32.68.56 1.138.72.458.142.97.213 1.534.213h4.152v3.414h-4.02zm-3.518-8.107h5.158a6.155 6.155 0 0 0-.16-.827 1.824 1.824 0 0 0-.343-.693 2.062 2.062 0 0 0-.502-.533 2.137 2.137 0 0 0-.688-.374 2.489 2.489 0 0 0-.846-.133c-.406 0-.767.071-1.085.213a2.21 2.21 0 0 0-.793.587 2.593 2.593 0 0 0-.503.827 5.568 5.568 0 0 0-.238.933zm10.879 8.107v-9.654c0-1.244.352-2.222 1.057-2.933.706-.711 1.685-1.067 2.936-1.067h3.94v3.36h-2.935a.863.863 0 0 0-.635.267c-.176.16-.264.373-.264.64v9.387h-4.1zm16.298 0c-1.393 0-2.636-.303-3.73-.907-1.093-.604-1.957-1.413-2.591-2.427-.635-1.03-.952-2.186-.952-3.466 0-1.28.317-2.427.952-3.44a6.909 6.909 0 0 1 2.592-2.454c1.093-.604 2.336-.906 3.729-.906h1.534v1.626h-1.667c-.97 0-1.85.231-2.644.694a5.13 5.13 0 0 0-1.905 1.84c-.476.782-.714 1.662-.714 2.64 0 .977.238 1.857.714 2.64a5.344 5.344 0 0 0 1.905 1.866c.793.445 1.675.667 2.644.667h1.667v1.627h-1.534zm10.209.346c-1.358 0-2.566-.31-3.624-.933a6.841 6.841 0 0 1-2.486-2.587c-.599-1.084-.899-2.293-.899-3.626 0-1.334.3-2.543.9-3.627a6.645 6.645 0 0 1 2.485-2.56c1.058-.64 2.266-.96 3.624-.96s2.557.32 3.597.96a6.643 6.643 0 0 1 2.486 2.56c.617 1.067.925 2.276.925 3.627 0 1.333-.308 2.542-.925 3.626a6.839 6.839 0 0 1-2.486 2.587c-1.04.622-2.24.933-3.597.933zm0-1.626c1.005 0 1.895-.24 2.671-.72a5.031 5.031 0 0 0 1.798-2c.441-.836.662-1.77.662-2.8 0-1.031-.22-1.965-.662-2.8a4.844 4.844 0 0 0-1.798-1.974c-.776-.497-1.666-.746-2.671-.746-1.023 0-1.922.249-2.698.746a5.103 5.103 0 0 0-1.798 1.974c-.423.835-.635 1.769-.635 2.8 0 1.03.212 1.964.635 2.8a5.31 5.31 0 0 0 1.798 2c.776.48 1.675.72 2.698.72zm9.835 1.28v-7.92c0-1.245.274-2.311.82-3.2a5.643 5.643 0 0 1 2.248-2.08c.935-.498 1.966-.747 3.095-.747 1.146 0 2.177.249 3.094.747a5.461 5.461 0 0 1 2.222 2.08c.564.889.846 1.955.846 3.2v7.92h-1.851v-7.84c0-.943-.203-1.743-.609-2.4a4.099 4.099 0 0 0-1.613-1.547 4.351 4.351 0 0 0-2.116-.533 4.3 4.3 0 0 0-2.09.533c-.651.338-1.18.844-1.586 1.52-.406.658-.608 1.467-.608 2.427v7.84h-1.852zm20.447 0c-1.198 0-2.142-.347-2.83-1.04-.67-.694-1.004-1.636-1.004-2.827V8.653h1.85v12.934c0 .782.195 1.386.583 1.813.405.427.996.64 1.772.64h2.592v1.627h-2.963zm-6.188-11.974v-1.626h9.204v1.626h-9.204zm11.647 11.974v-9.734c0-1.209.335-2.15 1.005-2.826.687-.694 1.63-1.04 2.83-1.04h2.327v1.626h-1.957c-.776 0-1.367.214-1.772.64-.388.427-.582 1.031-.582 1.814v9.52h-1.851zm14.315.346c-1.357 0-2.565-.31-3.623-.933a6.839 6.839 0 0 1-2.486-2.587c-.6-1.084-.9-2.293-.9-3.626 0-1.334.3-2.543.9-3.627a6.643 6.643 0 0 1 2.486-2.56c1.058-.64 2.266-.96 3.623-.96 1.358 0 2.557.32 3.597.96a6.645 6.645 0 0 1 2.486 2.56c.617 1.067.926 2.276.926 3.627 0 1.333-.309 2.542-.926 3.626a6.841 6.841 0 0 1-2.486 2.587c-1.04.622-2.24.933-3.597.933zm0-1.626c1.005 0 1.896-.24 2.672-.72a5.034 5.034 0 0 0 1.798-2c.44-.836.661-1.77.661-2.8 0-1.031-.22-1.965-.66-2.8a4.846 4.846 0 0 0-1.8-1.974c-.775-.497-1.666-.746-2.67-.746-1.023 0-1.923.249-2.698.746a5.098 5.098 0 0 0-1.799 1.974c-.423.835-.634 1.769-.634 2.8 0 1.03.211 1.964.634 2.8a5.304 5.304 0 0 0 1.799 2c.775.48 1.675.72 2.697.72zm9.836 1.28V6.2h1.851v19.467h-1.851z" fill="#0A1250" fill-rule="nonzero"/>
        <path d="M0 7c0-3.866 3.108-7 6.943-7h17.852c3.834 0 6.942 3.134 6.942 7v18c0 3.866-3.108 7-6.942 7H6.943C3.108 32 0 28.866 0 25V7z" fill="#C2328F" fill-rule="nonzero"/>
        <path d="M21.326 20.155a3.224 3.224 0 0 0-3.228-.821 3.59 3.59 0 0 1-3.58-.91 3.635 3.635 0 0 1-1.05-2.438v-.129a3.646 3.646 0 0 1 1.053-2.566c.437-.44.98-.76 1.575-.929h.009c-2.23.492-6.064 2.521-6.064 6.915a7.883 7.883 0 0 0 4.046 3.853 7.72 7.72 0 0 0 2.986.597 7.718 7.718 0 0 0 2.986-.597 7.77 7.77 0 0 0 2.53-1.707l-1.263-1.268z" fill="url(#jrwivsgiva)"/>
        <path d="m22.575 10.295-1.25 1.265a3.223 3.223 0 0 1-3.228.821 3.59 3.59 0 0 0-1.038-.147c-.33 0-.657.045-.975.134h.01c-2.23.49-6.065 2.52-6.065 6.914a7.889 7.889 0 0 1-.772-3.416 7.894 7.894 0 0 1 .591-3.011 7.841 7.841 0 0 1 1.694-2.551 7.773 7.773 0 0 1 2.53-1.707A7.722 7.722 0 0 1 17.058 8a7.719 7.719 0 0 1 2.986.592 7.769 7.769 0 0 1 2.531 1.703z" fill="#FFF"/>
    </g>
</svg>
