<svg width="80" height="32" viewBox="0 0 80 32" xmlns="http://www.w3.org/2000/svg">
    <defs>
        <linearGradient x1="17.109%" y1="88.9%" x2="78.699%" y2="20.797%" id="ys001vhzva">
            <stop stop-color="#FFF" offset="51.051%"/>
            <stop stop-color="#FFF" stop-opacity=".3" offset="100%"/>
        </linearGradient>
    </defs>
    <g fill="none" fill-rule="evenodd">
        <path d="M0 7c0-3.866 3.218-7 7.187-7h18.481c3.97 0 7.188 3.134 7.188 7v18c0 3.866-3.218 7-7.188 7H7.188C3.217 32 0 28.866 0 25V7z" fill="#C2328F" fill-rule="nonzero"/>
        <path d="M9.48 19.443a2.183 2.183 0 0 0 0 3.147c.893.87 2.333.87 3.226 0l3.619-3.53a4.637 4.637 0 0 0-6.452 0l-.393.383z" fill="url(#ys001vhzva)" fill-rule="nonzero"/>
        <path d="m19.87 9.32-3.568 3.476-2.532-2.466a3.809 3.809 0 0 0-2.657-1.071c-.996 0-1.952.385-2.656 1.071l-.585.57 5.188 5.053-3.567 3.475a2.27 2.27 0 0 1-.012.016l.392-.383a4.637 4.637 0 0 1 6.452 0l-3.619 3.53c-.329.32-.732.523-1.155.607a2.302 2.302 0 0 0 1.183-.613l3.568-3.474 2.533 2.466a3.809 3.809 0 0 0 2.656 1.072c.997 0 1.952-.385 2.657-1.072l.585-.57-5.19-5.054 3.569-3.475a2.192 2.192 0 0 0 0-3.158 2.336 2.336 0 0 0-3.242 0z" fill="#FFF"/>
        <path d="M49.557 25.667c-1.46 0-2.756-.294-3.888-.88-1.132-.605-2.026-1.414-2.683-2.427-.657-1.031-.986-2.204-.986-3.52 0-1.316.329-2.48.986-3.493.657-1.031 1.551-1.85 2.683-2.454 1.132-.604 2.428-.906 3.888-.906h2.108v3.493h-1.944c-.711 0-1.323.151-1.834.453a3.087 3.087 0 0 0-1.205 1.2c-.273.498-.41 1.067-.41 1.707 0 .64.137 1.218.41 1.733.292.498.694.898 1.205 1.2.511.285 1.123.427 1.834.427h1.944v3.467h-2.108zm10.816 0c-1.46 0-2.756-.294-3.888-.88-1.132-.605-2.026-1.414-2.683-2.427-.657-1.031-.986-2.204-.986-3.52 0-1.316.329-2.48.986-3.493.657-1.031 1.551-1.85 2.683-2.454 1.132-.604 2.428-.906 3.888-.906h2.108v3.493h-1.944c-.711 0-1.323.151-1.834.453a3.087 3.087 0 0 0-1.205 1.2c-.273.498-.41 1.067-.41 1.707 0 .64.137 1.218.41 1.733.292.498.694.898 1.205 1.2.511.285 1.123.427 1.834.427h1.944v3.467h-2.108zM68.791 12l10.295 13.667h-4.764L64 12z" fill="#0A1250" fill-rule="nonzero"/>
        <path fill="#0A1250" fill-rule="nonzero" d="M79.086 12 68.764 25.667H64L74.295 12z"/>
    </g>
</svg>
