<svg xmlns="http://www.w3.org/2000/svg" width="40" height="40" viewBox="0 0 40 40"><path fill="#AFB5C3" fill-rule="evenodd" d="M19.6127247,32.1256264 C19.8829453,32.0064787 20.1888689,31.9404458 20.5301039,31.9607081 C20.2420645,29.5056221 20.5203133,26.4223384 20.5491629,26.1021412 C20.5507294,26.0850919 20.5515779,26.0759116 20.5515779,26.0750591 L20.1739219,0.273725695 C20.1739219,0.273725695 20.7277434,1.728593 21.3064331,2.56006321 C21.4258784,2.82449643 21.7641763,3.18458883 22.2397383,3.69081261 L22.2397383,3.69082572 C23.8671317,5.42323512 27.1021414,8.8670965 28.6794069,16.0452722 C30.2393757,25.4590581 25.72963,31.2654283 23.2581564,33.6626781 L23.2628559,33.667924 C23.2628559,33.667924 23.2558067,33.6712027 23.242622,33.6777601 C22.3728252,34.5193353 21.7593462,34.9357294 21.7593462,34.9357294 C21.7423759,34.9275327 21.7256666,34.9188113 21.7090878,34.909631 C21.5051823,35.1779593 21.3405044,35.4860254 21.2645294,35.8301571 C20.9358916,37.1686511 21.1548094,40 21.1548094,40 L20.0326762,39.6393437 C20.0326762,39.6393437 20.0930515,37.2702906 19.5336167,35.5637304 C18.0729246,34.4739582 10.5745952,28.397358 11.0189637,18.7976046 C11.4863369,8.16499699 17.3419715,2.94052285 18.4737517,1.99543278 C19.2119629,1.15532648 19.2365047,0.840112853 19.2858493,0 C19.6675521,0.872867005 19.7136332,10.0994264 19.7412427,15.6435666 C19.7510333,17.6038977 19.7585394,19.1038346 19.777729,19.6112453 C19.8831411,23.1742675 19.7766194,26.5705354 19.689222,29.3561137 C19.6575657,30.3667383 19.6283897,31.2969693 19.6127247,32.1256264 Z"/></svg>