<svg xmlns="http://www.w3.org/2000/svg" width="40" height="40" viewBox="0 0 40 40"><g fill="#AFB5C3" fill-rule="evenodd" transform="translate(0 1)"><path fill-rule="nonzero" d="M36.8357177,30.1825682 C34.6540546,30.1237854 32.9873336,30.3254051 31.5624668,30.9225733 C31.1575337,31.0923294 30.5118521,31.0967244 30.4457914,31.6010485 C30.6682972,31.8328838 30.7028478,32.1789886 30.8797469,32.464113 C31.2197248,33.0112882 31.7943704,33.7444261 32.3068249,34.128987 C32.8668211,34.5492571 33.4439543,34.9983693 34.0443056,35.3623287 C35.1120573,36.009215 36.3041913,36.3786682 37.3324172,37.026928 C37.9382965,37.4090167 38.5403062,37.8902672 39.1315361,38.3215247 C39.423696,38.5346813 39.6202198,38.8662277 40,39 L40,38.9381956 C39.8004357,38.6857588 39.7490244,38.3385553 39.565768,38.0748564 L38.7592188,37.2733216 C37.9706359,36.2330844 36.9694977,35.3194776 35.9053392,34.5605192 C35.0567764,33.9551105 33.1573225,33.137644 32.803248,32.155915 L32.7410569,32.0941105 C33.3427902,32.0268124 34.047346,31.8103595 34.6026433,31.662853 C35.5355095,31.4139871 36.36887,31.4782637 37.3324172,31.231046 C37.7663727,31.1077119 38.2008811,30.984103 38.6353895,30.8610435 L38.6353895,30.6143752 C38.1483642,30.1177423 37.8011997,29.4606925 37.2699497,29.0113056 C35.8810155,27.8356481 34.3646587,26.6610893 32.803248,25.6818324 C31.9372717,25.1385028 30.8670323,24.7855309 29.9493683,24.3251566 C29.6406241,24.1705081 29.0980415,24.090025 28.8943312,23.8318199 C28.4122812,23.2211921 28.1496966,22.4468513 27.7776557,21.7354137 C26.9990234,20.2452402 26.2342113,18.6174489 25.5443049,17.0492646 C25.0735875,15.9801853 24.7662253,14.9259391 24.1794179,13.9664597 C21.3623001,9.36354056 18.3298629,6.58563752 13.6323632,3.85470585 C12.6328834,3.27401891 11.4294169,3.04438113 10.1576783,2.74497301 L8.11034791,2.62136415 C7.69380586,2.44831175 7.26040312,1.94206481 6.86929031,1.69649522 C5.31313123,0.719710565 1.32184578,-1.40553771 0.169237729,1.38829714 C-0.558536135,3.15178349 1.25689065,4.87269346 1.90616555,5.76624815 C2.36195708,6.39308239 2.94544764,7.09573007 3.2710525,7.80084993 C3.48526623,8.26424579 3.52230447,8.72874041 3.70556086,9.21905554 C4.15665351,10.4268514 4.54859553,11.7406762 5.13236249,12.8567268 C5.42728642,13.421482 5.75233848,14.0164526 6.12520857,14.5213261 C6.35379534,14.831447 6.74546096,14.9679661 6.80737564,15.4464697 C6.42427857,15.9793612 6.40244259,16.8061672 6.18712324,17.4810715 C5.21749517,20.5196519 5.58317873,24.2960398 6.99367248,26.5448969 C7.42652241,27.2351837 8.44590335,28.7157431 9.84755214,28.1479665 C11.0736839,27.6516082 10.7997667,26.1136394 11.1505244,24.7569635 C11.2298526,24.4493148 11.1809289,24.2229732 11.3365448,24.0169585 L11.3365448,24.0787629 L12.4532203,26.2982286 C13.2796707,27.6208434 14.7468274,29.0033397 15.9898198,29.9361746 C16.6343958,30.4198972 17.1418751,31.2563172 17.9752356,31.5392441 L17.9752356,31.4774397 L17.9130445,31.4774397 C17.7516241,31.2274751 17.4989901,31.1236437 17.2927921,30.9225733 C16.8071488,30.4495634 16.2673302,29.8614599 15.8657141,29.3195037 C14.7352184,27.7941704 13.736015,26.1249015 12.825814,24.386961 C12.3910292,23.5574082 12.0131838,22.6416039 11.646671,21.7972181 C11.5054282,21.4717148 11.5070866,20.9794768 11.2127155,20.8105447 C10.8113757,21.4294131 10.2201458,21.9298916 9.90974322,22.6605573 C9.41332018,23.8285236 9.34919426,25.2527723 9.16538507,26.7297608 C9.05648157,26.7684916 9.10457601,26.741847 9.0410029,26.7912906 C8.17696147,26.5841771 7.87319258,25.7002364 7.5522866,24.9418274 C6.73965646,23.0239673 6.58901584,19.9356687 7.30352227,17.7280145 C7.48871349,17.1566669 8.32456163,15.3574714 7.98624215,14.8300736 C7.82482174,14.3034998 7.29191327,13.9988727 6.99367248,13.5967319 C6.62467206,13.0992749 6.25622444,12.4444226 6.0008264,11.8700535 C5.33607283,10.374661 5.02567023,8.69605273 4.32581326,7.18445376 C3.99136344,6.46175398 3.42556279,5.73053892 2.96092631,5.08804755 C2.44653695,4.37660991 1.87050933,3.85195899 1.4719336,2.99136666 C1.33013793,2.68564076 1.13748378,2.19614968 1.34755143,1.88163382 C1.4147178,1.66957596 1.50897184,1.58085227 1.72014512,1.51163131 C2.08002418,1.2361209 3.08226802,1.60337655 3.45707294,1.75829965 C4.45213025,2.16895574 5.2824503,2.5601091 6.12520857,3.11470083 C6.52986521,3.38142128 6.93894432,3.89700755 7.42790443,4.03984445 L7.98624215,4.03984445 C8.85968135,4.23926674 9.83815437,4.10164888 10.6541014,4.34804253 C12.0963817,4.78369508 13.3888506,5.46107162 14.5624654,6.1977804 C18.1388672,8.44169318 21.0626773,11.6360207 23.0627425,15.4464697 C23.3844777,16.0598443 23.5237857,16.6454756 23.8071006,17.2962076 C24.3789822,18.608659 25.0992931,19.9590171 25.6681342,21.2423517 C26.2358697,22.5223901 26.7892321,23.8147893 27.5916353,24.8802977 C28.0137054,25.4403831 29.6431118,25.74089 30.3833239,26.0515602 C30.9026885,26.2696612 31.7531861,26.4968268 32.2449103,26.7912906 C33.1841338,27.3543976 34.0940584,28.0246323 34.9749606,28.6413031 C35.4152734,28.9495012 36.7685514,29.6255043 36.8359941,30.1825682 L36.8357177,30.1825682 Z"/><path d="M8.92540997,6.39421787 C8.39329603,6.38608187 8.0170016,6.44303386 7.61904762,6.51571544 L7.61904762,6.57673543 L7.69178494,6.57673543 C7.94555739,7.01418093 8.39329603,7.29568646 8.70752127,7.67238317 C8.94924563,8.0986064 9.1911646,8.52475193 9.43327813,8.95081967 L9.50569218,8.89007089 C9.95504721,8.62429495 10.1609747,8.19932465 10.1587302,7.5508856 C9.97864643,7.39196244 9.95181444,7.19235929 9.79599492,7.00279053 C9.58845109,6.75003219 9.18694106,6.60683862 8.92540997,6.39421787 L8.92540997,6.39421787 Z"/></g></svg>