<svg xmlns="http://www.w3.org/2000/svg" width="40" height="40" viewBox="0 0 40 40"><g fill="none" fill-rule="evenodd"><path fill="#AFB5C3" fill-rule="nonzero" d="M20,0 L21.6733068,0.8 L21.6334014,0.867632916 C25.1868223,1.16316314 28.4701854,2.41420548 31.2279538,4.36420101 L31.2350598,4.32 L33.0677291,4.8 L33.7848606,6.48 L33.7545378,6.49114686 C36.1773308,8.90637318 37.9725657,11.9553316 38.8730095,15.3697203 L38.8844622,15.36 L40,16.8 L39.4422311,18.56 L39.4432159,18.6280962 C39.4953052,19.2117384 39.5219124,19.8027496 39.5219124,20.4 C39.5219124,23.3748955 38.8617824,26.1949927 37.6805686,28.7206893 L37.689243,28.72 L37.6095618,30.56 L36.0956175,31.6 L36.0619216,31.5434478 C34.081728,34.4150959 31.3572234,36.7299907 28.1685055,38.2069145 L28.2071713,38.24 L26.9322709,39.6 L25.0996016,39.36 L25.1054376,39.3229341 C23.4780611,39.7644521 21.7664285,40 20,40 C18.2067964,40 16.4700626,39.7572572 14.8206186,39.302715 L14.8207171,39.36 L12.9880478,39.52 L11.7131474,38.16 C8.59754684,36.6843876 5.92672474,34.4084658 3.9727561,31.5935704 L2.39043825,30.64 L2.31075697,28.8 L2.31075697,28.72 C1.1382176,26.1949927 0.478087649,23.3748955 0.478087649,20.4 C0.478087649,19.8027496 0.504694837,19.2117384 0.556784055,18.6280962 L0.557768924,18.56 L0,16.88 L1.10534011,15.4525528 C1.10869146,15.439615 1.11205564,15.4266823 1.11543265,15.4137548 L1.11553785,15.36 L1.12699053,15.3697203 C2.02743435,11.9553316 3.82266924,8.90637318 6.24546222,6.49114686 L6.21513944,6.48 L6.93227092,4.72 L8.76494024,4.32 L8.77204621,4.36420101 C11.5491532,2.40053135 14.8592519,1.14565192 18.4413922,0.861556845 L18.4063745,0.8 L20,0 Z M20,4.56 C19.2828685,4.56 18.5657371,4.64 17.8486056,4.72 C17.1314741,4.8 16.4940239,4.96 15.936255,5.12 C9.40239044,6.88 4.54183267,12.8 4.38247012,19.84 L4.38247012,20.24 C4.38247012,28.96 11.3944223,36 20,36 C28.6055777,36 35.6175299,28.96 35.6175299,20.32 L35.6175299,19.92 C35.4581673,12.8 30.5976096,6.88 24.063745,5.12 C23.4262948,4.96 22.7888446,4.8 22.1513944,4.72 C21.4342629,4.64 20.7171315,4.56 20,4.56 Z M8.12749004,32.96 L7.88844622,32.96 L7.88844622,32.96 C7.82868526,32.96 7.7689243,32.96 7.70916335,32.99375 L7.64940239,33.04 L7.64940239,33.04 C7.64940239,33.04 7.62948207,33.06 7.60956175,33.08 L7.56972112,33.12 L7.56972112,33.12 C7.25099602,33.28 7.17131474,33.36 7.25099602,33.6 C7.25099602,33.728 7.30199203,33.8048 7.36318725,33.87136 L7.41035857,33.92 L7.41035857,33.92 L7.49003984,34 L7.49003984,34 C7.5498008,34.06 7.60956175,34.12 7.70293825,34.18 L7.80876494,34.24 C7.88844622,34.32 7.96812749,34.32 7.96812749,34.4 C8.04780876,34.48 8.04780876,34.48 8.12749004,34.56 L8.23954183,34.6725 C8.25199203,34.685 8.26693227,34.7 8.28685259,34.72 C8.36653386,34.8 8.44621514,34.88 8.52589641,34.88 C8.60557769,34.88 8.60557769,34.96 8.60557769,34.96 L8.68525896,34.96 L8.68525896,34.96 L9.00398406,34.56 L9.32270916,34.24 L9.96015936,33.52 L9.56175299,33.2 L9.16334661,33.76 C9.09960159,33.696 9.08685259,33.6832 9.08430279,33.68064 L9.08366534,33.68 L8.92430279,33.6 L8.76494024,33.44 C8.65869854,33.3333333 8.55245684,33.2622222 8.44621514,33.1792593 L8.28685259,33.04 C8.22709163,33.04 8.21215139,32.995 8.1748008,32.9725 L8.12749004,32.96 Z M31.4741036,32.96 L30.9163347,32.96 L30.9163347,32.96 C30.9163347,32.96 30.8366534,32.96 30.8366534,33.04 C30.5179283,33.28 30.2788845,33.52 29.8804781,33.84 C29.8804781,33.84 29.8007968,33.92 29.8007968,33.92 L29.8001594,33.92064 L29.7835857,33.93728 C29.7721116,33.9488 29.752988,33.968 29.7211155,34 L29.8804781,34.24 C29.9601594,34.16 30.0398406,34.08 30.1195219,34 C30.2788845,33.84 30.438247,33.76 30.5179283,33.6 C30.5976096,33.52 30.7569721,33.44 30.8366534,33.44 C30.9163347,33.44 31.0756972,33.52 31.1553785,33.68 C31.2191235,33.744 31.2828685,33.8592 31.3874104,33.94368 L31.4741036,34 L31.7928287,34.4 L31.9521912,34.56 L32.3505976,34.16 L32.1912351,33.92 L31.7131474,33.12 L31.7131474,33.12 C31.7131474,33.12 31.6683267,33.075 31.6459163,33.0525 L31.6334661,33.04 L31.6334661,33.04 C31.5697211,32.976 31.5569721,32.9632 31.5136255,32.96064 L31.4741036,32.96 L31.4741036,32.96 Z M8.44621514,33.52 C8.60557769,33.68 8.68525896,33.76 8.84462151,33.92 C8.92430279,34 9.00398406,34 9.00398406,34.08 L8.52589641,34.48 L8.52589641,34.48 C8.44621514,34.4 8.36653386,34.4 8.36653386,34.4 C8.28685259,34.32 8.28685259,34.32 8.20717131,34.24 C8.04780876,34.16 7.96812749,34 7.80876494,33.92 C7.72908367,33.84 7.64940239,33.68 7.72908367,33.6 C7.80876494,33.52 7.80876494,33.36 8.04780876,33.36 C8.20717131,33.36 8.28685259,33.36 8.44621514,33.52 Z M37.2111554,22.4 L37.0517928,22.4 L37.0517928,22.4 C36.9920319,22.4 36.9322709,22.445 36.87251,22.50125 L36.812749,22.56 L36.812749,22.56 C36.6533865,22.56 36.6533865,22.64 36.6533865,22.72 C36.6533865,22.88 36.5737052,23.04 36.5737052,23.2 L36.5737052,23.44 L36.4143426,23.44 C36.3346614,23.44 36.3346614,23.44 36.2549801,23.52 C36.1912351,23.52 36.1784861,23.52 36.1759363,23.56096 L36.1752988,24 L36.1752988,24 L36.5737052,23.92 C36.4940239,24.08 36.4940239,24.24 36.6533865,24.32 C36.6533865,24.32 36.6533865,24.32 36.6941833,24.36096 L36.7330677,24.4 C36.7928287,24.46 36.8525896,24.52 36.9123506,24.54625 L36.9721116,24.56 L36.9721116,24.56 L37.3705179,24.64 C37.5298805,24.64 37.689243,24.72 37.8486056,24.72 L38.0079681,24.72 L38.0079681,24.72 C38.0876494,24.72 38.1673307,24.72 38.247012,24.64 L38.3266932,24.64 C38.4860558,24.56 38.4860558,24.48 38.4860558,24.32 C38.5657371,24.08 38.5657371,23.76 38.6454183,23.52 L38.6454183,23.44 L38.6454183,23.44 C38.6454183,23.36 38.6454183,23.28 38.7250996,23.12 C38.7250996,22.96 38.7250996,22.8 38.6454183,22.72 C38.4063745,22.64 38.3266932,22.56 38.1673307,22.48 L37.2111554,22.4 Z M3.26693227,22 L3.10756972,22 L3.10756972,22 C3.10756972,22 3.05657371,22 3.0361753,22.04096 L3.02788845,22.08 L3.02788845,22.08 C2.94820717,22.16 2.78884462,22.24 2.70916335,22.32 C2.62948207,22.32 2.62948207,22.4 2.5498008,22.4 L2.39043825,22.4 C2.39043825,22.4 2.33944223,22.4 2.31904382,22.35904 L2.31075697,22.32 L2.31075697,22.32 C2.2310757,22.24 2.15139442,22.24 1.99203187,22.24 L1.67330677,22.4 L1.67330677,22.48 L1.67330677,22.48 C1.67330677,22.56 1.5936255,22.56 1.5936255,22.64 C1.51394422,22.72 1.51394422,22.8 1.51394422,22.96 C1.5936255,23.2 1.67330677,23.52 1.75298805,23.84 C1.83266932,24.08 1.83266932,24.24 1.9123506,24.48 L1.9123506,24.56 L1.9123506,24.56 L2.5498008,24.4 C2.70916335,24.4 2.8685259,24.32 3.02788845,24.32 L3.8247012,24.16 L3.74501992,23.68 L3.34661355,23.84 L3.02788845,23.92 L2.8685259,23.2 L2.78884462,22.88 L2.8685259,22.8 L2.94820717,22.8 L3.01543825,22.7325 C3.02290837,22.725 3.02788845,22.72 3.02788845,22.72 C3.02788845,22.72 3.10756972,22.64 3.10756972,22.64 C3.187251,22.56 3.26693227,22.56 3.26693227,22.48 C3.34661355,22.4 3.34661355,22.4 3.34661355,22.32 C3.34661355,22.24 3.34661355,22.16 3.26693227,22.08 L3.26693227,22 Z M37.2111554,22.96 C37.2908367,22.96 37.3705179,22.96 37.4501992,23.04 L37.689243,23.04 L37.689243,23.04 C37.7689243,23.04 37.8486056,23.04 38.0079681,23.12 C38.1673307,23.04 38.247012,23.2 38.247012,23.36 C38.247012,23.6 38.1673307,23.84 38.0876494,24.08 C38.0876494,24.1466667 37.976981,24.2688889 37.8939796,24.3077778 L37.8486056,24.32 L37.8486056,24.32 C37.7689243,24.32 37.6095618,24.24 37.5298805,24.24 L37.2908367,24.24 L37.2908367,24.24 C37.2111554,24.24 37.1314741,24.24 37.0517928,24.16 C36.8924303,24.16 36.812749,24 36.812749,23.84 L36.812749,23.68 L36.812749,23.68 C36.812749,23.52 36.8924303,23.36 36.8924303,23.2 C36.8924303,23.04 37.0517928,22.96 37.1314741,22.96 L37.2111554,22.96 L37.2111554,22.96 Z M2.2310757,22.72 C2.35856574,22.72 2.43505976,22.7712 2.50135458,22.83264 L2.5498008,22.88 L2.5498008,22.88 L2.5498008,23.04 L2.5498008,23.04 C2.5498008,23.16 2.59462151,23.325 2.61703187,23.4675 L2.62948207,23.6 C2.69322709,23.728 2.7059761,23.8048 2.7085259,23.87136 L2.70916335,23.92 L2.07171315,24.08 L2.07171315,23.84 C2.07171315,23.76 2.07171315,23.68 1.99203187,23.52 L1.99203187,23.44 C1.99203187,23.36 1.9123506,23.2 1.9123506,23.12 C1.83266932,22.88 1.9123506,22.8 2.15139442,22.72 L2.2310757,22.72 Z M35.3784861,11.04 L35.1394422,11.04 L35.1394422,11.04 L34.8207171,11.2 L34.6613546,11.6 C34.7410359,11.68 34.7410359,11.76 34.8207171,11.84 C34.9800797,12.08 35.059761,12.32 35.2191235,12.56 L35.2191235,12.8 L35.2191235,12.8 L35.0929084,12.92672 C35.07251,12.9472 35.059761,12.96 35.059761,12.96 L34.9800797,12.96 L34.9800797,12.96 C34.9003984,12.96 34.8207171,12.88 34.7410359,12.8 C34.687915,12.7466667 34.6702081,12.6933333 34.6406965,12.64 L34.5816733,12.56 C34.4223108,12.32 34.2629482,12 34.1035857,11.76 L34.1035857,11.68 L34.1035857,11.68 C34.1035857,11.68 34.1035857,11.6 34.0239044,11.6 L34.0239044,11.52 L33.7848606,11.68 L33.7848606,11.76 L33.7848606,11.76 C33.7848606,11.76 33.7848606,11.8112 33.8256574,11.83168 L33.8645418,11.84 L33.8645418,11.84 C33.9442231,12 34.0239044,12.08 34.1035857,12.24 C34.2629482,12.56 34.4223108,12.88 34.5816733,13.12 C34.9358123,13.0488889 35.0381191,13.0409877 35.1124446,13.0962963 L35.1394422,13.12 L35.1394422,13.12 C35.2669323,13.184 35.3434263,13.1968 35.4097211,13.19936 L35.6175299,13.2 L35.6175299,13.2 C35.6772908,13.2 35.6922311,13.155 35.7295817,13.1325 L35.7768924,13.12 L35.7768924,13.12 L35.8565737,13.12 L35.8565737,13.12 C35.936255,13.04 36.0159363,12.96 36.0956175,12.88 L36.0956175,12.72 L36.0956175,12.72 C36.0956175,12.64 36.0956175,12.56 36.0159363,12.56 C36.0159363,12.56 36.0159363,12.48 35.936255,12.48 C35.7768924,12.24 35.6972112,12.08 35.5378486,11.84 L35.4581673,11.76 C35.3944223,11.696 35.3816733,11.5808 35.4199203,11.49632 L35.4581673,11.44 L35.4581673,11.44 C35.5378486,11.44 35.5378486,11.36 35.6175299,11.36 C35.6972112,11.36 35.7768924,11.44 35.8565737,11.52 C35.8565737,11.6 35.936255,11.68 35.936255,11.68 C35.936255,11.76 36.0159363,11.84 36.0159363,11.92 C36.0159363,12 36.0956175,12.08 36.0956175,12.16 C36.0956175,12.16 36.0956175,12.24 36.1752988,12.24 L36.2549801,12.4 L36.2549801,12.48 C36.2549801,12.56 36.3346614,12.56 36.3346614,12.64 L36.374502,12.68 C36.3844622,12.69 36.3944223,12.7 36.4018924,12.7075 L36.4143426,12.72 L36.4143426,12.72 L36.5737052,12.72 L36.5737052,12.72 L36.5737052,12.64 L36.5737052,12.64 C36.3346614,12.24 36.0956175,11.84 35.8565737,11.44 L35.6972112,11.12 L35.5378486,11.12 C35.4581673,11.12 35.4581673,11.12 35.3784861,11.04 Z M4.70119522,10.16 L4.46215139,10.16 L4.46215139,10.16 C4.39840637,10.16 4.33466135,10.2112 4.31171315,10.23168 L4.30278884,10.24 C4.30278884,10.24 4.30278884,10.32 4.22310757,10.32 C4.22310757,10.32 4.22310757,10.4 4.14342629,10.4 C3.98406375,10.64 3.8247012,10.96 3.66533865,11.28 L3.66533865,11.36 L3.66533865,11.36 C3.60159363,11.488 3.58884462,11.616 3.62709163,11.744 L3.66533865,11.84 C3.66533865,11.9733333 3.72067286,12.0511111 3.8313413,12.1196296 L3.90438247,12.16 L4.30278884,12.4 C4.30278884,12.4 4.38247012,12.4 4.38247012,12.48 C4.46215139,12.48 4.46215139,12.56 4.54183267,12.56 C4.54183267,12.56 4.62151394,12.56 4.62151394,12.64 C4.62151394,12.64 4.67250996,12.64 4.69290837,12.68096 L4.70119522,12.72 L4.70119522,12.72 C4.76095618,12.72 4.77589641,12.765 4.81324701,12.7875 L4.86055777,12.8 L4.86055777,12.8 L4.94023904,12.8 L4.94023904,12.8 C5.01992032,12.72 5.09960159,12.72 5.17928287,12.64 C5.17928287,12.64 5.25896414,12.64 5.25896414,12.56 C5.33864542,12.56 5.33864542,12.48 5.33864542,12.4 C5.33864542,12.32 5.41832669,12.24 5.41832669,12.16 C5.49800797,12.08 5.57768924,11.92 5.57768924,11.84 C5.57768924,11.76 5.65737052,11.76 5.65737052,11.68 C5.73705179,11.6 5.73705179,11.44 5.81673307,11.36 C5.88047809,11.232 5.94422311,11.1552 5.96717131,11.08864 L5.97609562,11.04 L5.97609562,11.04 L5.97609562,10.96 L5.97609562,10.96 C5.97609562,10.896 5.97609562,10.8832 5.9352988,10.83968 L5.89641434,10.8 C5.89641434,10.72 5.81673307,10.64 5.73705179,10.64 C5.65737052,10.56 5.57768924,10.56 5.49800797,10.48 C5.49800797,10.48 5.41832669,10.4 5.41832669,10.4 L5.09960159,10.24 L4.86055777,10.24 L4.86055777,10.24 C4.78087649,10.24 4.78087649,10.16 4.70119522,10.16 Z M4.78087649,10.72 C4.86055777,10.72 4.86055777,10.72 4.94023904,10.8 L5.01992032,10.8 L5.33864542,10.96 L5.41832669,10.96 C5.49800797,10.96 5.49800797,11.04 5.57768924,11.04 C5.73705179,11.12 5.73705179,11.28 5.65737052,11.44 C5.59760956,11.62 5.49302789,11.755 5.41085657,11.9125 L5.33864542,12.08 L5.33864542,12.08 C5.25896414,12.16 5.17928287,12.16 5.09960159,12.16 L4.94023904,12.16 L4.94023904,12.16 C4.86055777,12.16 4.78087649,12.08 4.78087649,12.08 C4.78087649,12.08 4.70119522,12.08 4.70119522,12 L4.30278884,11.76 C4.22310757,11.68 4.14342629,11.68 4.06374502,11.6 C4.06374502,11.52 4.06374502,11.44 4.14342629,11.36 C4.14342629,11.28 4.22310757,11.28 4.22310757,11.2 C4.30278884,11.12 4.30278884,11.04 4.38247012,10.96 C4.38247012,10.96 4.38247012,10.88 4.46215139,10.88 C4.46215139,10.8 4.54183267,10.72 4.70119522,10.72 L4.78087649,10.72 L4.78087649,10.72 Z M14.5816733,2.56 C14.5816733,2.56 14.501992,2.56 14.501992,2.64 C14.4223108,2.72 14.2629482,2.72 14.2629482,2.8 C14.2629482,2.8 14.1832669,2.88 14.1832669,2.96 L13.9442231,3.68 L13.1474104,3.36 L12.9083665,3.36 L12.9083665,3.36 C12.8446215,3.36 12.7298805,3.4112 12.6457371,3.47264 L12.5896414,3.52 L12.5896414,3.52 C12.5896414,3.584 12.6406375,3.5968 12.7018327,3.64032 L12.749004,3.68 L12.749004,3.68 C12.749004,3.68 12.8286853,3.68 12.8286853,3.76 L13.0677291,3.76 L13.0677291,3.76 C13.2270916,3.84 13.3067729,3.84 13.3864542,3.92 C13.5192563,3.98666667 13.54139,3.99777778 13.5911908,3.99962963 L13.625498,4 L13.625498,4 L13.625498,4.16 L13.625498,4.16 C13.5458167,4.48 13.3864542,4.8 13.3067729,5.04 C13.3067729,5.12 13.2270916,5.2 13.3864542,5.28 L13.5458167,5.28 C13.5458167,5.28 13.625498,5.28 13.625498,5.2 C13.7051793,5.2 13.7848606,5.12 13.8645418,4.96 C13.9442231,4.8 14.0239044,4.56 14.0239044,4.4 L14.0239044,4.16 C14.0239044,4.16 14.1035857,4.16 14.1035857,4.24 L14.1832669,4.24 L14.1832669,4.24 C14.2629482,4.24 14.2629482,4.32 14.3426295,4.32 C14.4621514,4.38 14.5368526,4.395 14.6339641,4.4325 L14.7410359,4.48 L14.7410359,4.48 L14.9003984,4.48 L14.9003984,4.48 C15.0278884,4.416 15.1553785,4.4032 15.2828685,4.31872 L15.3784861,4.24 L15.3784861,4.24 C15.3784861,4.24 15.3784861,4.24 15.2988048,4.16 C15.2988048,4.16 15.2191235,4.16 15.2191235,4.08 L15.1394422,4.08 L15.1394422,4.08 L14.3426295,3.76 L14.1832669,3.68 L14.501992,3.2 L14.6613546,2.72 L14.5816733,2.56 Z M26.1354582,2.64 L25.9760956,2.96 L25.9760956,2.96 L25.9760956,3.12 L25.9760956,3.12 C25.8394991,3.18857143 25.8199854,3.25714286 25.867376,3.32571429 L25.8964143,3.36 L25.8964143,3.36 L26.1354582,3.92 C26.2151394,4 26.2151394,4.16 26.1354582,4.32 C26.1354582,4.4 26.0557769,4.4 26.0557769,4.48 C26.0557769,4.56 25.9760956,4.56 25.9760956,4.64 C25.9760956,4.72 25.8964143,4.72 25.8964143,4.8 L26.374502,5.04 L26.374502,5.04 C26.374502,5.04 26.374502,4.96 26.4541833,4.96 C26.4541833,4.9 26.499004,4.885 26.5214143,4.8475 L26.5338645,4.8 L26.5338645,4.8 C26.5338645,4.72 26.6135458,4.72 26.6135458,4.64 C26.6832669,4.5 26.6919821,4.4825 26.8532122,4.4803125 L27.0916335,4.48 L27.0916335,4.48 C27.1713147,4.48 27.250996,4.48 27.3306773,4.4 C27.3837981,4.4 27.436919,4.36444444 27.4900398,4.34074074 L27.5697211,4.32 L27.6494024,4.32 L27.6494024,4.32 L27.8087649,4 L27.8884462,3.76 L27.4900398,3.52 L27.3306773,3.68 L27.3306773,3.68 L27.3306773,3.76 L27.3306773,3.76 C27.3306773,3.84 27.250996,3.84 27.250996,3.92 L27.250996,4 L27.250996,4 C27.250996,4 27.1713147,4.08 27.1713147,4.08 C27.0916335,4.08 26.9322709,4.16 26.8525896,4.16 L26.5338645,4.16 C26.5338645,4.08 26.4541833,4 26.4541833,4 C26.374502,3.92 26.374502,3.84 26.2948207,3.76 C26.2948207,3.68 26.2151394,3.68 26.2151394,3.6 L26.2151394,3.28 L26.2151394,3.28 L26.374502,2.96 L26.2151394,2.88 L26.2948207,2.72 L26.1354582,2.64 Z"/><path fill="#AFB5C3" fill-rule="nonzero" d="M18.1673307,12.96 C19.123506,12.4 20.7968127,11.76 22.8685259,11.92 C24.940239,12.08 26.2151394,12.88 26.2151394,12.88 C26.2151394,12.88 25.6573705,12.64 25.1792829,12.56 C24.7808765,12.48 23.8247012,12.24 22.7091633,12.24 C21.5139442,12.24 20.5577689,12.48 20,12.72 C19.4422311,12.96 18.0876494,13.6 17.6095618,14.48 C17.1314741,15.28 17.5298805,15.84 17.5298805,15.84 C17.5298805,15.84 18.0617053,15.4967451 18.9120674,15.1919643 C19.6536208,14.8707923 20.7072552,14.5926404 21.9123506,14.72 C23.4262948,14.8 24.3824701,15.36 24.3824701,15.36 C24.3824701,15.36 24.0663076,15.254191 23.7767903,15.1716399 C25.424382,15.778097 26.2295453,16.7661841 26.9322709,17.6 C27.8087649,18.64 28.5258964,20.72 28.2868526,22.24 C28.0478088,24 27.4103586,25.76 26.2151394,27.12 C25.0199203,28.48 23.1075697,29.44 23.1075697,29.44 C23.1075697,29.44 25.2589641,28.16 26.374502,26.08 C27.4103586,24.16 27.4900398,22.8 27.3306773,21.36 C27.0916335,19.92 25.8964143,18.8 25.8964143,18.8 L25.8964143,18.8 L25.8960956,18.83704 C25.8941516,18.9848898 25.8803501,19.5583404 25.7823673,20.2487864 C25.8913959,20.7586021 25.9164113,21.3062562 25.8167331,21.84 C25.6573705,23.04 25.1792829,24.24 24.3027888,25.12 C23.4262948,26.08 21.9920319,26.72 21.9920319,26.72 C21.9920319,26.72 23.5059761,25.92 24.3824701,24.48 C24.82109,23.7313636 25.0424083,23.1281744 25.1261701,22.5770244 C24.7479802,23.4375382 24.1851931,24.330687 23.3466135,25.12 C22.0717131,26.32 20.3984064,27.12 18.4860558,27.04 C16.5737052,26.96 14.9800797,26.24 13.7848606,25.12 C12.5896414,24 11.87251,22.88 11.4741036,21.84 C11.0756972,20.8 10.6772908,19.44 10.7569721,17.44 C10.8366534,15.44 11.7131474,13.92 11.7131474,13.92 C11.7131474,13.92 11.3944223,14.64 11.1553785,15.68 C10.9163347,16.72 10.8366534,18.08 10.9960159,19.2 C11.1553785,20.4 11.4741036,21.52 12.9083665,23.28 C14.3426295,25.04 16.0159363,25.6 16.6533865,25.68 C17.2908367,25.84 18.0876494,25.76 18.7250996,25.44 C18.988156,25.3409593 19.1969347,25.2146711 19.3514356,25.1004902 C19.0952718,25.1275766 18.8332769,25.1349228 18.5657371,25.12 C17.1314741,25.04 15.936255,24.56 15.059761,23.84 C14.1832669,23.04 13.7051793,22.32 13.3864542,21.6 C13.0677291,20.96 12.749004,20 12.8286853,18.64 C12.9083665,17.28 13.5458167,16.24 13.5458167,16.24 C13.5458167,16.24 13.3067729,16.72 13.1474104,17.44 C12.9880478,18.16 12.9083665,19.04 13.0677291,19.84 C13.1474104,20.64 13.3864542,21.36 14.501992,22.56 C15.6175299,23.76 16.812749,24.08 17.2908367,24.16 C17.4433516,24.1855208 17.6039755,24.2029003 17.7675347,24.2069439 L17.689243,24.16 C16.9721116,23.68 16.0956175,23.04 15.4581673,22 C14.8207171,21.04 14.4223108,19.84 14.4223108,18.64 C14.4223108,17.44 14.7410359,16.56 15.3784861,15.52 C16.0956175,14.48 17.2111554,13.52 18.1673307,12.96 Z"/></g></svg>