<svg xmlns="http://www.w3.org/2000/svg" width="40px" height="40px" viewBox="0 0 72 72" xml:space="preserve">
    <g fill="#88919C">
        <path fill="#AFB5C3" fill-rule="nonzero" d="M41.1 55.2c-4.2 2.2-6.5 2.1-9.7.6-3.3-1.6-30.6-13-30.6-13V51c0 .7 1 1.5 2.9 2.4 3.7 1.8 24.5 10.2 27.8 11.7 3.3 1.6 5.6 1.6 9.7-.6 4.2-2.2 23.6-10.2 27.4-12.1 1.9-1 2.8-1.8 2.8-2.5v-8.2c-.2 0-26.2 11.3-30.3 13.5z"/>
        <path fill="#AFB5C3" fill-rule="nonzero" d="M41.1 43.5c-4.2 2.2-6.5 2.1-9.7.6-3.3-1.6-30.6-13-30.6-13v8.3c0 .7 1 1.5 2.9 2.4C7.4 43.6 28.2 52 31.5 53.6s5.6 1.6 9.7-.6c4.2-2.2 23.6-10.2 27.4-12.1 1.9-1 2.8-1.8 2.8-2.5v-8.2c-.2-.1-26.2 11.1-30.3 13.3z"/>
        <path fill="#AFB5C3" fill-rule="nonzero" d="M71.3 19.2c0-.7-.9-1.3-2.8-2-3.7-1.3-23-9.1-26.8-10.4-3.7-1.4-5.2-1.4-9.6.2-4.3 1.5-25 9.7-28.7 11.1-1.9.7-2.8 1.4-2.7 2.1v8.2S28 39.9 31.3 41.5s5.6 1.6 9.7-.6 30.2-13.6 30.2-13.6l.1-8.1zm-9.2.2-10.7 4.2-9.7-3.8 10.7-4.2 9.7 3.8zm-19.8 4-4.9 7.2L26 25.9l16.3-2.5zm-8.5-11-1.6-2.9 4.9 1.9 4.6-1.5-1.3 3 4.7 1.8-6.1.6-1.4 3.3-2.2-3.7-7.1-.6 5.5-1.9zm-12.2 4.1c4.8 0 8.7 1.5 8.7 3.4s-3.9 3.4-8.7 3.4-8.7-1.5-8.7-3.4c-.1-1.8 3.9-3.4 8.7-3.4z"/>
    </g>
</svg>
